<svg xmlns="http://www.w3.org/2000/svg" width="228" height="194" viewBox="0 0 228 194">
  <g fill="none" fill-rule="evenodd" transform="translate(-30 -13)">
    <path d="M0 0h288v220H0z"/>
    <ellipse cx="144" cy="185.25" fill="#CFCFCF" fill-rule="nonzero" rx="113.85" ry="10.84"/>
    <ellipse cx="139.34" cy="196.11" fill="#CFCFCF" fill-rule="nonzero" rx="82.2" ry="10.84"/>
    <path fill="#22442E" fill-rule="nonzero" d="M121.64 110.24c3.5746-3.8096 9.0058-5.2528 14-3.72A19.74 19.74 0 01140 93a34 34 0 0110.68-8.51c6.8-3.74 14.25-6.31 21.81-6 14.58.52 28.24 12.78 32 28.71 7.07-1.89 14.21-3.79 21.47-3.91 7.26-.12 14.76 1.71 20.58 6.62 9.18 7.74 12.59 22.11 10.64 34.86-2 12.94-9 24.8-18.8 31.84-9.6776 7.0075-22.0738 9.0901-33.51 5.63a7.09 7.09 0 00-3.83-.52 9.1 9.1 0 00-3.12 2.07c-4.32 3.48-9.85 4.23-15.13 4.77-10.4 1.06-20.94 1.68-31.27-.15C141.19 186.58 131 182 123.29 174a29.68 29.68 0 00-4.75-4.51c-3.77-2.49-8.45-2.12-12.69-3.31-10.12-2.83-16.94-16-14.17-27.34 1.922-7.917 8.1706-14.057 16.12-15.84 2.53-.52 6.28.44 8.36-1.65 2.63-2.59 2.55-8.06 5.48-11.11z"/>
    <path fill="#29543A" fill-rule="nonzero" d="M161.11 94.92c2.18 5.58 7.83 10.17 13.77 9.4-4.52 6.08-3 15.43 2.56 20.59 5.56 5.16 14.13 6.25 21.29 3.78 0 6 4.84 11 10.32 13.36 11.13 4.76 25.5-.22 31.3-10.85a21 21 0 0016.17-3.63c-1.59-7.07-4.92-13.52-10.08-17.87-5.82-4.91-13.32-6.73-20.58-6.61-7.26.12-14.4 2-21.47 3.9-3.74-15.93-17.4-28.18-32-28.71a36 36 0 00-12.47 1.92c.47 5.45-.04 11.59 1.19 14.72z"/>
    <path fill="#326343" fill-rule="nonzero" d="M165.5 84a12.27 12.27 0 00-1 3.24.78.78 0 00.07.56.74.74 0 00.44.34.75.75 0 00.91-.51 11.89 11.89 0 01.37-1.54c.08-.25.16-.5.26-.75l.06-.15a.49.49 0 000-.11c0 .09 0 .1 0 0s.1-.24.16-.36a.73.73 0 00-1.27-.72zm1.05 9.89a6.68 6.68 0 00.69 2.12.735.735 0 001.27-.74c-.07-.14-.14-.28-.2-.42l.08.18a5.9 5.9 0 01-.39-1.53.75.75 0 00-.34-.44.72.72 0 00-.57-.08.75.75 0 00-.44.34l-.07.18a.65.65 0 000 .39h-.03zm6.77-11.04l-.85 3.21a.74.74 0 00.53.94.76.76 0 00.91-.51l.85-3.22a.73.73 0 00-.51-.9.75.75 0 00-.91.51l-.02-.03zm-2.44 10.24l.64 1.93a.72.72 0 00.34.44.69.69 0 00.56.08.75.75 0 00.52-.91l-.64-1.93a.72.72 0 00-.34-.44.72.72 0 00-.57-.08.75.75 0 00-.51.91zM181.45 87a4.54 4.54 0 01.21.45l.06.13c0-.06 0 0 0 0s.05.13.08.2c.12.31.24.62.34.94a16.32 16.32 0 01.48 2 .74.74 0 001.42-.39 16.08 16.08 0 00-1.32-4.06.75.75 0 00-1-.26.76.76 0 00-.27 1V87zm6.7 5.12a.78.78 0 000 .14c0-.07 0-.08 0 0a2.29 2.29 0 000 .25v.42a7.69 7.69 0 010 1V94.27c0 .15 0 .3-.08.46-.07.31-.15.62-.25.93a.74.74 0 00.52.9.75.75 0 00.9-.51 9.22 9.22 0 00.31-4.27.74.74 0 00-.91-.51.76.76 0 00-.51.91l.02-.06zm4.99 8.39a.59.59 0 000 .13c0 .07 0 .08 0 0v.27a5 5 0 010 .55c.005.09.005.18 0 .27 0 .06 0 .08 0 0v.13c0 .19-.08.38-.13.57a5.17 5.17 0 01-.18.51c0 .11 0-.09 0 0l-.06.13-.12.24c-.09.16-.19.31-.29.46a1 1 0 01-.08.11c-.07.1.06-.07 0 0l-.2.23a.74.74 0 000 1 .75.75 0 001 0 6 6 0 001.44-5.08.74.74 0 10-1.42.39l.04.09zm-15.82-6.01v1.59c0 .26 0 .52-.05.77s0 .25 0 .38v.05c.0048.08.0048.16 0 .24a.8.8 0 00.07.57.78.78 0 00.44.34.75.75 0 00.91-.52 15.64 15.64 0 00.16-3.42.76.76 0 00-.74-.74.75.75 0 00-.73.74h-.06zm6 7.39c-.06.29-.14.58-.23.87a4 4 0 01-.15.45c0 .07-.05.15-.08.22l-.06.14-.06.13a2 2 0 01-.1.21 3 3 0 01-.21.4 7.9101 7.9101 0 01-.48.79.74.74 0 001.27.75 10.1 10.1 0 001.52-3.57.76.76 0 00-.52-.91.74.74 0 00-.9.52zm-6.16 8.74l-.16 2.75a.73.73 0 00.73.73.76.76 0 00.74-.73l.16-2.75a.74.74 0 00-.74-.73.75.75 0 00-.73.73zm8.46 1.27l-.81 2.58a.74.74 0 101.42.39l.81-2.58a.74.74 0 00-1.42-.39zm-5.13 6.75a10.14 10.14 0 01-1 1.58l.12-.15c-.14.18-.28.35-.43.52a.79.79 0 00-.22.52.75.75 0 00.22.53.76.76 0 001 0 12.12 12.12 0 001.56-2.26.76.76 0 00-.27-1 .74.74 0 00-1 .27l.02-.01zm9.51 2.42a8.55 8.55 0 01-.75 1.36l-.22.3s.09-.12 0 0l-.06.07-.12.15c-.18.2-.36.39-.55.57a.74.74 0 000 1 .76.76 0 001 0 8.4 8.4 0 001.91-2.71.81.81 0 00.08-.57.74.74 0 00-1.35-.18l.06.01zm6.43 2.44l-1.42 1.8a.79.79 0 00-.22.52.74.74 0 001.26.52l1.42-1.8a.83.83 0 00.21-.52.78.78 0 00-.21-.52.73.73 0 00-.52-.21.67.67 0 00-.52.21zm3.31-16.1c0 .08 0 .08 0 0a.5.5 0 010 .12c.0048.08.0048.16 0 .24l-.09.43c-.07.29-.16.58-.26.87l-.08.2s-.11.27 0 .11c-.06.14-.12.27-.19.4-.14.28-.29.55-.46.82a.73.73 0 00.27 1 .74.74 0 001-.26 9.36 9.36 0 001.38-3.92.73.73 0 00-.73-.74.76.76 0 00-.74.74l-.1-.01zm-6.61 5a5.83 5.83 0 01-.06.72v-.2a8.29 8.29 0 01-.42 1.7.71.71 0 00.07.57.78.78 0 00.44.34.77.77 0 00.91-.52 8.58 8.58 0 00.51-2.61.74.74 0 00-.74-.74.76.76 0 00-.74.74h.03zm10 12.9l-.13 3.39a.74.74 0 00.74.74.76.76 0 00.73-.74l.19-3.39a.74.74 0 00-.74-.73.76.76 0 00-.74.73h-.05zm3.87-11.49l-.79 1.62a.86.86 0 00-.07.57.78.78 0 00.34.44.75.75 0 00.57.07.78.78 0 00.44-.34l.78-1.62a.81.81 0 00.08-.57.78.78 0 00-.34-.44.75.75 0 00-.57-.07.72.72 0 00-.44.34zm-6.32 3.46l1.46-1.29a.76.76 0 00.21-.52.78.78 0 00-.21-.52.73.73 0 00-.52-.21.86.86 0 00-.53.21l-1.45 1.29a.78.78 0 00-.21.52.76.76 0 00.21.52.74.74 0 00.52.22.79.79 0 00.52-.22zm10.51-6.48a7 7 0 01.7-.4l.39-.19s.19-.1 0 0l.2-.08a8.36 8.36 0 011.56-.42.73.73 0 00.51-.9.75.75 0 00-.9-.52 8.5 8.5 0 00-3.23 1.25.735.735 0 00.74 1.27l.03-.01zm-.79 19.52v2.74a.74.74 0 101.47 0v-2.74a.74.74 0 10-1.47 0zm-4.82 5.52l.47 1.45a.78.78 0 00.34.44.81.81 0 00.57.08.75.75 0 00.44-.34.71.71 0 00.07-.57l-.47-1.45a.83.83 0 00-.34-.44.81.81 0 00-.57-.08.75.75 0 00-.44.34.71.71 0 00-.07.57zm7.18-17.19l-1.13 2.42a.81.81 0 00-.08.57.78.78 0 00.34.44.74.74 0 001-.27l1.13-2.42a.78.78 0 00.07-.56.72.72 0 00-.34-.44.73.73 0 00-1 .26h.01zm8.09-6.37c.3614-.354.742-.6878 1.14-1l.13-.11c.07-.06-.13.1 0 0h.07l.32-.23.64-.43a.75.75 0 00.27-1 .75.75 0 00-1-.26 14.11 14.11 0 00-2.57 2 .74.74 0 101 1v.03zM215.73 130l.16 1.78a.79.79 0 00.22.52.7.7 0 00.52.21.72.72 0 00.73-.73l-.16-1.78a.79.79 0 00-.22-.52.7.7 0 00-.52-.21.78.78 0 00-.52.21.73.73 0 00-.21.52zm3.09 8.58l.81 2.25a.79.79 0 00.34.44.73.73 0 001.08-.83l-.81-2.25a.79.79 0 00-.34-.44.73.73 0 00-1.08.83zm8.99-1.52a14.35 14.35 0 01-.94-3.39.74.74 0 00-.91-.52.76.76 0 00-.51.91 14.35 14.35 0 00.94 3.39.79.79 0 00.34.44.81.81 0 00.57.08.74.74 0 00.51-.91zM224 125c.07-.25.15-.5.23-.75l.15-.39.06-.15v-.1c0 .1-.05.11 0 0 .2153-.4775.459-.9417.73-1.39a.74.74 0 10-1.27-.75 12 12 0 00-1.34 3.1.74.74 0 00.52.9.73.73 0 00.9-.51l.02.04zm-3.5-4l1.77-2.42a.76.76 0 00.08-.57.78.78 0 00-.34-.44.75.75 0 00-.57-.07.82.82 0 00-.44.34l-1.77 2.41a.76.76 0 00-.08.57.75.75 0 00.91.52.93.93 0 00.44-.34zm8.9-10.46l3.55-1a.74.74 0 00-.39-1.42l-3.55 1a.74.74 0 00-.52.9.77.77 0 00.91.52zm21.03 10.13a14.64 14.64 0 01.37 1.72v.08a1.3599 1.3599 0 000 .2v1.35a.74.74 0 00.73.74.75.75 0 00.74-.74 14 14 0 00-.52-3.74.73.73 0 00-.9-.51.74.74 0 00-.52.9h.1zm-5.51 3.68v2.9a.74.74 0 101.48 0v-2.9a.74.74 0 10-1.48 0zm-1.72-11.74a5.68 5.68 0 01.63.67s.09.11 0 0l.12.18c.09.13.18.26.26.4.08.14.15.26.22.39l.1.21s.05.16.09.2c.04.04-.05-.12 0 0a.42.42 0 000 .1 2 2 0 00.08.22c.05.15.1.31.14.46a.74.74 0 001.42-.39 7.76 7.76 0 00-2.13-3.56.76.76 0 00-1 0 .77.77 0 000 1l.07.12zm-5.2 12.71c.03.5262.03 1.0538 0 1.58 0 .26 0 .52-.05.78s0 .25 0 .37 0-.11 0 0a1.8699 1.8699 0 000 .25.83.83 0 00.07.56.74.74 0 00.44.34.75.75 0 00.91-.51 15.1 15.1 0 00.17-3.42.74.74 0 10-1.47 0l-.07.05zm-5.35 5.97a15 15 0 01-.08 3.07.74.74 0 00.22.52.7.7 0 00.52.21.73.73 0 00.52-.21.83.83 0 00.21-.52 15 15 0 00.08-3.07.75.75 0 00-.74-.74.74.74 0 00-.73.74zm-1.22-10.68l-1 3.23a.75.75 0 00.51.91.76.76 0 00.91-.52l.95-3.23a.75.75 0 00-.52-.9.74.74 0 00-.9.51h.05zm-1.69-4.82l1.94-1.29a.75.75 0 00.34-.44.73.73 0 00-.08-.56.75.75 0 00-1-.27l-1.94 1.29a.75.75 0 00-.34.44.73.73 0 00.07.56.75.75 0 001 .27h.01zm8.62-.13c.08.26.15.53.21.8s.06.29.09.44v1.96a.75.75 0 00.74.74.77.77 0 00.74-.74 11.48 11.48 0 00-.48-3.59.75.75 0 00-.9-.52.76.76 0 00-.52.91h.12z"/>
    <path fill="#CFCFCF" fill-rule="nonzero" d="M59.27 160.26a20 20 0 012.86-14.7 18.87 18.87 0 01-14.9-8.63 9.25 9.25 0 01-1.65-4.9 9.45 9.45 0 011.7-4.82c2.14-3.4 5.68-5.69 8.92-7.93a.83.83 0 00.33-.34.81.81 0 000-.46c-1.48-5.71-3.09-11.38-2.33-17.34.74-4.58 3.12-9.72 7.88-11.22a9.75 9.75 0 017.69 1 13.07 13.07 0 015.17 5.9c1.32 2.88 2 8 5.58 9 2.62.69 5.07-1.43 7-3.36a28.92 28.92 0 017.26-5.85c2.79-1.39 6.23-1.84 9-.43 3.17 1.61 4.79 5.18 5.92 8.56 3.4 10.18 4.48 21.5.81 31.59a56.19 56.19 0 01-3.93 8.21 40.07 40.07 0 01-6.4 9c-3 2.94-6.66 5-10.3 7.09-6.56 3.69-13.13 7.37-19.74 11-1.59.87-2.3 1.33-3.82.26a15.61 15.61 0 01-3.16-3.23 19.87 19.87 0 01-3.89-8.4z"/>
    <path fill="#008F3B" fill-rule="nonzero" d="M55.48 133A29.72 29.72 0 0166 125.72c10-4 17.4.06 26.69 3.67.8-7.76 3.64-14.72 10.6-17 5.69-1.86 9.61 1.41 14.67 3.86 6.58 3.19 10.87-5.58 16.09-8.61a24.29 24.29 0 0120.26-2.1 23.26 23.26 0 0111 8.06c2.83 3.83 4.45 8.58 5.57 13.42.49 2.08.48 5.18 1.31 7.06 1.94 4.38 7 1.2 10.28.4 3.08-.74 6.64-.72 9 1.83.92 1 1.56 2.35 2.4 3.47 2.76 3.65 7 .86 10.16.16a15.34 15.34 0 0112.6 2.78c4.8 3.63 7.9 10.23 8.0012 16.93.1388 13.29-11.8912 23.78-21.6912 27-8.1 2.66-16.64 2.68-25.06 3-12.84.53-25.68 1.88-38.53 1.08-12.85-.8-25.87-3.86-37.05-11.53-8.0367 7.5322-19.5664 10.0304-30 6.5-3.38-1.19-6.72-3-10.23-2.88-2.31.11-4.51 1.08-6.74 1.79-8.82 2.82-24.84-.79-22.56-15.72 1-6.36 5.36-8.05 9.27-11.31 5.08-4.23 5.13-11.66 8.32-17.43a36.07 36.07 0 015.12-7.15z"/>
    <path fill="#006D2C" fill-rule="nonzero" d="M202 159.41c2.86 1.55-6.89 8-7.89 8.26a18.93 18.93 0 01-8.1-.16c-7.69-1.61-15.93-6.1-19.68-13.26-3 7.32-8.14 12.78-16.42 13.73-6.57.76-13.25-1.59-18.63-5.26-2-1.37-12.15-9-11-11.9-1.6903 4.2976-5.7055 7.2367-10.313 7.5488-4.6075.3122-8.9825-2.0584-11.237-6.0888-3.094 9.0436-10.4941 15.9487-19.73 18.41a29 29 0 01-23.24-4.37c-2.6-1.76-2-2-4.69-1-2 .69-3.62 2-5.7 2.61a20 20 0 01-8 .58c-3.53-.47-4.67-1.74-4.87 2.53a12.78 12.78 0 003.8 10c4.74 4.56 12.87 5.59 19 3.64 2.22-.71 4.43-1.68 6.74-1.79 3.51-.16 6.84 1.69 10.22 2.88 10.4483 3.5505 22.003 1.0511 30.05-6.5 11.18 7.67 24.21 10.74 37.06 11.53 12.85.79 25.68-.55 38.53-1.08 8.42-.35 17-.37 25-3 9.6-3.15 21.33-13.28 21.68-26.18a27.07 27.07 0 01-22.58-1.13z"/>
    <path fill="#009B3F" fill-rule="nonzero" d="M41.36 163.21l1.94 1a.75.75 0 00.57.07.75.75 0 00.51-.9.72.72 0 00-.34-.44l-1.93-1a.81.81 0 00-.57-.08.75.75 0 00-.44.34.71.71 0 00-.07.57.73.73 0 00.33.44zM47 157a4.87 4.87 0 002.11 2.87.74.74 0 001-.26.76.76 0 00-.26-1 2.2 2.2 0 01-.25-.17c-.09-.06.06 0 .06 0h-.06a.52.52 0 01-.11-.1 3.66 3.66 0 01-.44-.44s-.13-.16 0-.06 0 0 0-.06a2.13 2.13 0 01-.16-.25 4.07 4.07 0 01-.28-.55l.07.18a4.2733 4.2733 0 01-.18-.54.7737.7737 0 10-1.5.38zm7.39 3a11.86 11.86 0 001.84 3 4.85 4.85 0 003 1.57.74.74 0 00.73-.74.76.76 0 00-.73-.74H59l-.31-.09s-.13-.06 0 0l-.18-.08a2.69 2.69 0 01-.29-.16l-.27-.18c-.18-.13.1.09-.07-.05l-.12-.11a5.78 5.78 0 01-.5-.49l-.11-.13s-.1-.13 0-.06a3.46 3.46 0 01-.22-.31c-.15-.22-.29-.44-.42-.67-.26-.48-.49-1-.73-1.46a.73.73 0 00-1-.27.77.77 0 00-.27 1l-.12-.03zm-3.3-10.09l.43.31c.15.11-.12-.1 0 0l.08.07.2.17a7.83 7.83 0 01.78.74c.12.13.24.26.35.4l.17.2s.11.13 0 0a1 1 0 01.08.11c.2116.29.4085.5903.59.9a.735.735 0 001.27-.74 10.52 10.52 0 00-3.23-3.44.73.73 0 00-1 .26.75.75 0 00.26 1l.02.02zm2.38-7.13a9.47 9.47 0 011.38 1.45l-.12-.15a9 9 0 01.56.81.75.75 0 001 .26.75.75 0 00.26-1 10.74 10.74 0 00-2.05-2.41.83.83 0 00-.52-.21.74.74 0 00-.52 1.26l.01-.01zm6.78-5.49l2.58 2.09a.79.79 0 00.52.22.73.73 0 00.52-.22.74.74 0 000-1l-2.58-2.09a.79.79 0 00-.52-.22.73.73 0 00-.52.22.74.74 0 000 1zm-.14 12.93a7.09 7.09 0 004.51 3.78.74.74 0 10.39-1.42l-.63-.21c-.19-.07.14.07 0 0l-.14-.06-.3-.15c-.19-.11-.38-.22-.57-.35l-.12-.08s-.17-.13-.1-.07l-.07-.06-.14-.12a5.16 5.16 0 01-.48-.46l-.2-.22-.12-.14c-.1-.12.07.09 0 0a6.43 6.43 0 01-.68-1.15.75.75 0 00-1-.27.76.76 0 00-.26 1l-.09-.02zm5.79 13.69a8.48 8.48 0 003.86 2 .74.74 0 10.39-1.42 7.7 7.7 0 01-.94-.26l-.22-.08-.11-.05c-.1 0 .11.05 0 0l-.45-.22a6.75 6.75 0 01-.82-.48l-.19-.14-.12-.08c-.09-.07.09.07 0 0l-.38-.32a.74.74 0 10-1 1l-.02.05zm11.3-3.4l.16.2.08.11a4.43 4.43 0 01.29.42 7.73 7.73 0 01.51.88c.08.15.15.31.22.46l.06.12.09.24a8.41 8.41 0 01.31 1 .74.74 0 101.42-.39 10.75 10.75 0 00-2.1-4.05.74.74 0 00-1 0 .76.76 0 000 1l-.04.01zm8.67-3.25l.49 4a.77.77 0 00.74.74c.36 0 .78-.33.73-.74l-.49-4a.77.77 0 00-.74-.74c-.36 0-.78.33-.73.74zm4.85-9.16a29.06 29.06 0 011.11 4.19.74.74 0 00.9.52.76.76 0 00.52-.91 30.56 30.56 0 00-1.11-4.2.75.75 0 00-.91-.51.74.74 0 00-.51.91zM85 133.61l.19.14s.14.1 0 0l.33.3c.11.1.21.21.31.32l.15.17.08.1c.06.07-.11-.15 0 0a5.87 5.87 0 01.47.75l.11.21v.11s0 .15 0 0c0 .15.11.29.15.44a.74.74 0 00.91.51.73.73 0 00.51-.9 6.49 6.49 0 00-2.56-3.42.74.74 0 00-.75 1.27h.1zm-14.28-5.07a12.69 12.69 0 011.79 1c.13.1.28.19.4.29-.08-.06 0 0 0 0l.09.08.2.16c.27.23.52.47.77.72a.74.74 0 001 0 .76.76 0 000-1 12 12 0 00-3.56-2.51.76.76 0 00-1 .27.73.73 0 00.27 1l.04-.01zm9.77 11.17a18.76 18.76 0 011.84 4 .73.73 0 00.9.51.74.74 0 00.52-.9 21.43 21.43 0 00-2-4.39.74.74 0 10-1.27.75l.01.03zm-5.42 5.82c.05.07.05.07 0 0l.07.1.16.21.29.43c.18.28.34.57.5.86.16.29.15.29.22.44.07.15.07.15.1.23l.06.12c0-.08 0-.07 0 0 .13.32.24.65.35 1a.74.74 0 00.9.51.75.75 0 00.52-.9 12.62 12.62 0 00-2.14-4 .74.74 0 00-1 0 .76.76 0 000 1h-.03zm-4.77 8.23c.16.29.32.59.45.89 0 0 .09.21 0 .07l.1.25.17.44a12 12 0 01.46 1.88.74.74 0 00.9.52.77.77 0 00.52-.91 12 12 0 00-1.33-3.9.74.74 0 00-1.27.75v.01zm-2.95-19.29c.21.14.4.28.6.43l-.15-.12a9.09 9.09 0 011.61 1.61l-.12-.15c.07.08.13.17.2.26a.79.79 0 00.44.34.78.78 0 00.56-.08.75.75 0 00.27-1 10 10 0 00-2.67-2.55.735.735 0 00-.74 1.27v-.01zm-.51 9.59a4.59 4.59 0 001.63 2.6.81.81 0 00.52.21.78.78 0 00.52-.21.73.73 0 00.21-.52.67.67 0 00-.21-.52 3.72 3.72 0 01-.71-.72l.11.15a4.05 4.05 0 01-.52-.9l.07.17a4.47 4.47 0 01-.2-.65.74.74 0 00-1.42.39zm30.07.51a13.1 13.1 0 003 3.52.79.79 0 00.52.22.73.73 0 00.52-.22.74.74 0 000-1 13.51 13.51 0 01-1.59-1.53l-.36-.46v-.1c.09.13 0 0 0 0l-.17-.23c-.21-.3-.42-.61-.61-.94a.74.74 0 00-1-.26.75.75 0 00-.26 1h-.05zm10.09 8.01a8.93 8.93 0 003.09 1.32.76.76 0 00.91-.52.75.75 0 00-.52-.9c-.25-.06-.5-.12-.75-.2l-.39-.13-.19-.07h-.2l-.19-.09-.34-.17c-.23-.13-.46-.27-.68-.42a.735.735 0 00-.74 1.27v-.09zm11-3.66a15.53 15.53 0 002.17-4.37.74.74 0 00-.51-.91.76.76 0 00-.91.52c-.12.38-.25.75-.4 1.12l-.06.14c0-.06 0 0 0 0l-.09.21c-.08.18-.17.36-.26.54a15.34 15.34 0 01-1.2 2 .74.74 0 00.26 1 .76.76 0 001-.26v.01zm-14.5-7.13l2.43 2.74a.74.74 0 101-1.05l-2.43-2.73a.74.74 0 00-1 0 .76.76 0 000 1v.04zm-7.3-11.18a16.43 16.43 0 000 4.9.74.74 0 00.91.52.76.76 0 00.51-.91c0-.27-.08-.63-.1-1-.02-.37 0-.73 0-1.09v-1.05V131.16a1.52 1.52 0 000-.19.74.74 0 10-1.42-.39l.1.03zm3.8-8.49l1.46-3.55a.74.74 0 00-.52-.9.75.75 0 00-.9.51l-1.45 3.55a.74.74 0 00.51.91.76.76 0 00.9-.52zm3 8.68a6.05 6.05 0 00.59 3.27.73.73 0 001 .27.76.76 0 00.27-1 1.11 1.11 0 01-.09-.19c0 .18 0 0 0 0l-.12-.34a5.47 5.47 0 01-.16-.7.36.36 0 010-.1v.09a1.23 1.23 0 010-.2v-.36a5.7899 5.7899 0 010-.72.74.74 0 00-.22-.52.79.79 0 00-.52-.22.77.77 0 00-.74.74l-.01-.02zm7.72 7.45c.16.6.3 1.2.4 1.81 0 .14 0 .28.07.42a.78.78 0 010 .14c0 .08 0 .1 0 0a.68.68 0 010 .14c0 .31.07.61.09.92a.74.74 0 101.47 0 20.75 20.75 0 00-.66-3.91.74.74 0 00-.9-.51.76.76 0 00-.52.9l.05.09zm7.09-4.03a7.35 7.35 0 01.28.91c0 .13 0 .26.07.39v.14a1.3599 1.3599 0 000 .2 8.5497 8.5497 0 010 .88v.8a.74.74 0 001.42.4 7.87 7.87 0 00-.34-4.11.74.74 0 00-1.42.39h-.01zm-6.06-6.43a9.55 9.55 0 01.51 1c.09.2.09.18.17.38l.18.5a14 14 0 01.55 2.12.73.73 0 00.9.51.75.75 0 00.51-.9A13.9 13.9 0 00113 127a.7418.7418 0 00-1.28.75l.03.04zM106 120l-.65 3.55a.75.75 0 00.52.9.74.74 0 00.9-.51l.65-3.55a.75.75 0 00-.52-.91.74.74 0 00-.9.52zm7.49-.46a11.17 11.17 0 002.24 2 .74.74 0 001.09-.83.93.93 0 00-.34-.44l-.39-.28.15.11a11.12 11.12 0 01-1.71-1.65.73.73 0 00-.52-.21.76.76 0 00-.52.21.74.74 0 00-.22.52.82.82 0 00.22.52v.05zm10.43 29.17a10.24 10.24 0 001.55 4.41.75.75 0 001 .26.75.75 0 00.26-1 10.4498 10.4498 0 01-.53-.92l-.2-.46c.06.13 0-.13-.06-.15-.06-.02-.06-.16-.08-.23a9.3201 9.3201 0 01-.3-1c0-.16-.07-.32-.1-.49-.03-.17 0-.18 0-.28 0-.1 0-.09 0 0v-.14a.74.74 0 10-1.48 0h-.06zm7.26-6.29v3.38a.74.74 0 101.47 0v-3.38a.74.74 0 00-.73-.74.75.75 0 00-.74.74zm-6.41-9.07l-.65 3.39a.74.74 0 001.42.39l.65-3.39a.75.75 0 00-.52-.9.74.74 0 00-.9.51zm-1.47-10.49l-1 3.06a.75.75 0 00.51.91.77.77 0 00.91-.52l1-3.06a.74.74 0 00-.51-.9.75.75 0 00-.91.51zm7.29-8.43l-1.91 2.92a.73.73 0 00.26 1 .75.75 0 001-.26l1.92-2.92a.73.73 0 00-.27-1 .75.75 0 00-1 .26zm1.7 13.63l-.16 3.87a.74.74 0 001.47 0l.16-3.87a.74.74 0 10-1.47 0zm6.52 20.19l1 2.74a.75.75 0 00.91.51.74.74 0 00.51-.9l-1-2.74a.75.75 0 00-.91-.51.73.73 0 00-.51.9zm-4.16 9.07l2.24 3.08a.78.78 0 00.44.34.73.73 0 00.83-1.08l-2.24-3.08a.79.79 0 00-.44-.34.72.72 0 00-.57.08.74.74 0 00-.26 1zm12.11 6.16a10.21 10.21 0 004.07-.5.75.75 0 00.52-.9.77.77 0 00-.91-.52 9.4602 9.4602 0 01-.91.26l-.5.1H148.69a9.58 9.58 0 01-1.93 0 .74.74 0 00-.74.73.77.77 0 00.74.74v.09zm12.74-4.72c.16-.24.33-.48.51-.71l.13-.18s-.08.1 0 0l.06-.08.28-.35c.38-.45.77-.89 1.18-1.3a.75.75 0 000-1 .74.74 0 00-1 0 21.26 21.26 0 00-2.38 2.89.73.73 0 00.27 1 .76.76 0 001-.26l-.05-.01zm-12.2-2.46c.23-.13.47-.24.71-.35a2.83 2.83 0 01.36-.16h.09l.18-.07a16.0799 16.0799 0 011.53-.5.73.73 0 00.51-.9.74.74 0 00-.9-.52 16 16 0 00-3.22 1.26.75.75 0 00-.27 1 .76.76 0 001 .27l.01-.03zm10.79-4.45l2.39-3.89a.735.735 0 00-1.27-.74l-2.39 3.89a.72.72 0 00.26 1 .75.75 0 001-.26h.01zm6.65-15.24a14.06 14.06 0 01-.62 3.83.75.75 0 00.51.91.76.76 0 00.91-.51 16.38 16.38 0 00.67-4.23.74.74 0 00-.73-.74.76.76 0 00-.74.74zm3.94 15.39a34.47 34.47 0 012.87 5.77.75.75 0 00.9.51.74.74 0 00.52-.9 36.72 36.72 0 00-3-6.13c-.5-.8-1.77-.06-1.27.75h-.02zm1.91-7l1.13 2.74a.87.87 0 00.34.44.75.75 0 00.57.07.78.78 0 00.44-.34.74.74 0 00.07-.56l-1.14-2.71a.79.79 0 00-.34-.44.72.72 0 00-.57-.08.75.75 0 00-.44.34.67.67 0 00-.07.57l.01-.03zm-6.24-21.73c.15.3.3.6.43.9l.12.26c-.06-.12 0 .07 0 .09l.2.5c.2378.6353.4414 1.283.61 1.94a.74.74 0 00.9.52.76.76 0 00.52-.91 19.65 19.65 0 00-1.54-4 .73.73 0 00-1-.26.77.77 0 00-.27 1l.03-.04zM159.09 134c.03.5262.03 1.0538 0 1.58l-.06.78c0 .12 0 .25-.05.37v.05a2.1701 2.1701 0 000 .25.72.72 0 00.51.9.74.74 0 00.91-.51 15.08 15.08 0 00.18-3.42.74.74 0 00-.73-.74.76.76 0 00-.74.74h-.02zm-8.71 2.29a5.25 5.25 0 010 1c0 .09 0 .08 0 0v.12a1.16 1.16 0 010 .18 5.74 5.74 0 01-.28.93v.05l-.11.22a4.19 4.19 0 01-.24.42l-.14.21-.07.09a.75.75 0 000 1 .74.74 0 001 0 6 6 0 001.35-4.22.74.74 0 10-1.47 0h-.04zm-9.05-3.51l.66 3.71a.73.73 0 00.9.51.76.76 0 00.52-.9l-.66-3.71a.74.74 0 00-.9-.52.76.76 0 00-.52.91zm-1.82-17.68a15.13 15.13 0 00-1.21 3.4.76.76 0 00.52.91.74.74 0 00.9-.52 15.47 15.47 0 01.46-1.61c.09-.27.19-.54.3-.79-.07.16 0 0 0 0s.07-.14.1-.22l.18-.38a.75.75 0 00-.26-1 .74.74 0 00-1 .26l.01-.05zm11.72-4.64l.69.49s.13.11 0 0h.07l.16.13.33.28a13.59 13.59 0 011.2 1.2.74.74 0 101-1 13.45 13.45 0 00-2.73-2.37.735.735 0 00-.74 1.27h.02zm4.66 10.86c.1928.5314.3465 1.0762.46 1.63 0 .14.05.27.07.41.02.14.05.26 0 .08v.19c0 .29 0 .58.06.88a.74.74 0 001.47 0 11.19 11.19 0 00-.68-3.58.76.76 0 00-.91-.52.74.74 0 00-.51.91h.04zm-9.52-.65a10.48 10.48 0 01.18 4.13.75.75 0 00.52.9.73.73 0 00.9-.51 12 12 0 00-.18-4.91.75.75 0 00-.91-.51.74.74 0 00-.51.9zM144 107.49a7.14 7.14 0 00-3.44.89.735.735 0 00.74 1.27l.35-.17a1.21 1.21 0 01.2-.09h-.08.11a4.46 4.46 0 01.73-.24c.12 0 .25-.06.38-.09h.27c.08 0 .07 0 0 0a.9999.9999 0 00.16 0h.58a.75.75 0 00.73-.74.73.73 0 00-.73-.73v-.1zm32.72 50.79l1.91 2a.74.74 0 001 0 .75.75 0 000-1l-1.91-2a.74.74 0 00-1 1zm4.01-8.97c-.09-.31-.16-.63-.22-.95a1.8501 1.8501 0 000-.23c0-.09 0-.1 0 0v-.12-.49-1-.67-.18a.75.75 0 00-.52-.9.73.73 0 00-.9.51 10 10 0 00.22 4.42.76.76 0 00.91.52.74.74 0 00.51-.91zm8.9-7.31c.18.19.36.38.53.58l.07.09s.08.11 0 0l.05.07.24.34c.15.22.28.45.41.68.0626.1137.1194.2305.17.35a1.3 1.3 0 01.08.17s.13.29 0 .08a.87.87 0 00.34.44.75.75 0 00.57.07.78.78 0 00.44-.34.74.74 0 00.07-.56 9.55 9.55 0 00-2-3.05.74.74 0 00-1 0 .75.75 0 000 1l.03.08zm-5.27 1.76l.12.29c0-.1.05.11.05.11.07.17.14.34.2.51.13.33.24.67.34 1a18.72 18.72 0 01.51 2.09.75.75 0 00.91.52.77.77 0 00.51-.91 18.79 18.79 0 00-1.37-4.37.74.74 0 00-1-.26.76.76 0 00-.26 1l-.01.02zm12.64 11.4a10 10 0 01-.83 5 .735.735 0 001.27.74 11.45 11.45 0 001-5.71.74.74 0 00-1.47 0l.03-.03zm-6.94-2.7c0 .09 0 .18.05.27v.6a3.09 3.09 0 010 .53 1.23 1.23 0 010 .2v.14a8.25 8.25 0 01-.28 1c-.06.16 0-.08 0 .07l-.11.24-.27.46a.74.74 0 00.26 1 .76.76 0 001-.26 6.25 6.25 0 00.81-4.62.74.74 0 00-.91-.51.75.75 0 00-.51.9l-.04-.02zm-.22 10.72a7.52 7.52 0 01-.5.75l.11-.15a7.44 7.44 0 01-1.28 1.29l.15-.12-.3.23a.75.75 0 00-.34.44.73.73 0 00.07.56.75.75 0 001 .27 8.27 8.27 0 002.36-2.53.74.74 0 00-1.28-.74h.01zm-6.39-10.12V156a.74.74 0 101.48 0v-2.91a.74.74 0 10-1.48 0v-.03zm27.3-7.72a4.94 4.94 0 01.49.3l.22.15.13.09a8.6 8.6 0 01.83.77c.12.14.25.28.36.42.11.14 0 .06 0 0a1.25 1.25 0 00.09.12l.16.22a9.05 9.05 0 01.57 1 .72.72 0 001 .26.76.76 0 00.27-1 8.09 8.09 0 00-3.38-3.61.75.75 0 00-1 .26.76.76 0 00.27 1l-.01.02zm6.44 10.02v.1c0 .03 0-.12 0 0V156.39a.34.34 0 000 .1c0-.11 0-.12 0 0v.18a4.89 4.89 0 01-.21.72.36.36 0 000 .09c0-.09 0-.1 0 0a.91.91 0 01-.07.14c-.06.12-.13.24-.2.36a.735.735 0 001.27.74 5.27 5.27 0 00.69-3.64.75.75 0 00-.91-.52.76.76 0 00-.51.91l-.06-.11zm-7.93 1.09a4 4 0 010 .6v-.19a5.09 5.09 0 01-.26 1 .76.76 0 00.08.57.74.74 0 00.44.33.68.68 0 00.56-.07.83.83 0 00.34-.44 5.63 5.63 0 00.33-1.82.79.79 0 00-.22-.52.73.73 0 00-.52-.21.75.75 0 00-.74.73l-.01.02zm-5.7-13.34c.19.33.36.66.53 1 .08.16.15.32.22.48l.06.13c0-.06 0-.05 0 0a2.44 2.44 0 01.1.24 14.4 14.4 0 01.65 2.12.74.74 0 00.9.52.75.75 0 00.52-.91 15.2 15.2 0 00-1.72-4.36.75.75 0 00-1-.26.73.73 0 00-.26 1v.04zm-.9 8.38c.07.22.13.45.18.67.05.22 0 .25.07.37s0-.16 0 0a1.11 1.11 0 010 .19c.015.2298.015.4602 0 .69v.51c0 .05 0 .07 0 0v.11a.81.81 0 00.07.57.77.77 0 00.44.33.75.75 0 00.91-.51 7 7 0 00-.25-3.3.76.76 0 00-.91-.51.73.73 0 00-.51.9v-.02zm-4.66-4.07a11.33 11.33 0 010 1.43c0 .23 0 .47-.05.7-.05.23 0 .22 0 .33 0-.19 0 0 0 0v.22a.81.81 0 00.08.57.72.72 0 00.44.34.74.74 0 00.9-.52 12.86 12.86 0 00.15-3.1.74.74 0 10-1.48 0l-.04.03z"/>
    <path fill="#B5B5B5" fill-rule="nonzero" d="M53 131.27v-.06l.11.15a6.35 6.35 0 01-.78-1.33l.07.17a6.28 6.28 0 01-.25-.73.74.74 0 00-1.42.39 6.91 6.91 0 001.27 2.45.74.74 0 001.26-.52v-.2a.7.7 0 00-.19-.32H53zm4-27.12a8.4 8.4 0 00.44 4.27.74.74 0 001.42-.4 7.21 7.21 0 01-.3-.93 3.15 3.15 0 01-.09-.42 2.33 2.33 0 01-.05-.28v-.08-.91-.5-.21-.14c0-.05 0 .08 0 0a.77.77 0 00-.52-.91c-.35-.07-.85.11-.9.52v-.01zM61 115a16.62 16.62 0 011.77 2.91.74.74 0 001 .26.75.75 0 00.26-1 16.54 16.54 0 00-1.77-2.9.83.83 0 00-.44-.34A.73.73 0 0061 115zm-2.86 9.77l2.27.76a.74.74 0 00.4-1.42l-2.28-.76a.74.74 0 00-.9.51.75.75 0 00.51.91zm3.52-24.91l1.09-3.56a.73.73 0 00-.51-.9.76.76 0 00-.91.51l-1.09 3.56a.74.74 0 00.51.91.75.75 0 00.91-.52zm7.46-1.94l1.45 1.29a.79.79 0 00.52.22.75.75 0 00.74-.74.74.74 0 00-.22-.52l-1.45-1.29a.78.78 0 00-.52-.21.76.76 0 00-.52.21.79.79 0 00-.22.52.73.73 0 00.22.52zm-2.44 5.73l.23.09c-.24-.09 0 0 .07 0l.4.22.2.14.08.06c.11.08-.13-.11 0 0a3.49 3.49 0 01.35.32c.11.11.21.22.31.34.1.12-.06-.09 0 0l.06.08.13.2a3.38 3.38 0 01.24.41l.1.22s-.07-.16 0 0a.5.5 0 000 .13.74.74 0 00.9.52.76.76 0 00.52-.91 5.24 5.24 0 00-3.19-3.18.74.74 0 00-.39 1.42l-.01-.06zm-2.19 4.13a6.24 6.24 0 00.68.94 6.46 6.46 0 00.87.78.8.8 0 00.57.07.78.78 0 00.44-.34.75.75 0 00.07-.57l-.07-.17a.87.87 0 00-.27-.27l.14.11a5 5 0 01-.86-.86l.12.15a4.07 4.07 0 01-.37-.55.7.7 0 00-.44-.33.75.75 0 00-.57.07.79.79 0 00-.34.44.81.81 0 00.08.57l-.05-.04zm10.91 2.58c.11.12.21.24.31.37l.07.09.13.2a5 5 0 01.48.88s.06.13 0 0a2.09 2.09 0 00.08.23c0 .15.1.3.14.46.04.16.08.31.11.47.03.16 0 .16 0 .24 0 .08 0-.13 0 0v.15a.76.76 0 00.74.73.74.74 0 00.74-.73 7.29 7.29 0 00-1.86-4.22.73.73 0 00-1 0 .75.75 0 000 1l.06.13zm-6.28 5.31c.08.11.17.21.26.32l.06.08c.11.13-.06-.09 0 0l.12.16c.16.23.32.46.47.7a10.61 10.61 0 01.77 1.5.77.77 0 00.44.33.73.73 0 00.91-.51.87.87 0 00-.08-.57 11.62 11.62 0 00-1.91-3 .74.74 0 00-1 1l-.04-.01zm11.15 4.98a12.14 12.14 0 003.52 2.72.735.735 0 00.74-1.27c-.31-.16-.62-.33-.92-.52l-.42-.28-.21-.15-.12-.09s-.14-.1 0 0a7 7 0 01-.78-.66c-.26-.25-.51-.51-.76-.78a.74.74 0 00-1 0 .76.76 0 000 1l-.05.03zM88 118.1v.1a.87.87 0 00.07.17l.15.4c.09.25.17.51.25.77a15 15 0 01.38 1.61.74.74 0 00.9.52.76.76 0 00.52-.91 14.89 14.89 0 00-1-3.4.73.73 0 00-1-.26.75.75 0 00-.27 1zm6.5-7.52a20.43 20.43 0 00-1.53 4 .74.74 0 101.42.39 19.77 19.77 0 01.61-1.94l.18-.46a2.44 2.44 0 01.1-.24v-.11c.14-.32.28-.63.44-.94a.75.75 0 00-.27-1 .74.74 0 00-1 .26l.05.04zm-10.71-1.21l.48 2.59a.74.74 0 001.42-.4l-.48-2.56a.73.73 0 00-.9-.51.76.76 0 00-.52.9v-.02zm9.14-7.37l-.93 3a.73.73 0 00.51.9.76.76 0 00.91-.51l.91-2.92a.74.74 0 10-1.42-.39l.02-.08zm6.82.37l-.33 1.94a.78.78 0 00.08.56.72.72 0 00.44.34.72.72 0 00.56-.07.71.71 0 00.34-.44l.33-1.94a.81.81 0 00-.08-.57.74.74 0 00-.44-.33.71.71 0 00-.57.07.7.7 0 00-.33.44zm4.76 2.83c0 .17.08.34.12.51a.57.57 0 010 .13c.005.0866.005.1734 0 .26a3.53 3.53 0 010 .46 2.46 2.46 0 010 .26.69.69 0 010 .13 6.24 6.24 0 01-.26.94l-.06.12a1.63 1.63 0 01-.11.23 4.9198 4.9198 0 01-.28.45.74.74 0 00.27 1 .76.76 0 001-.27 5.56 5.56 0 00.75-4.62.73.73 0 00-.9-.51.75.75 0 00-.52.9l-.01.01z"/>
    <path fill="#895B2E" fill-rule="nonzero" d="M133.6924 94.7291l-6.2667 3.8598-24.6483-40.0182c-.9384-1.5236-.464-3.5195 1.0595-4.458l.7493-.4614c1.5236-.9384 3.5194-.464 4.4579 1.0595l24.6483 40.0183z"/>
    <path fill="#AD8768" fill-rule="nonzero" d="M112.3328 60.052l-6.2667 3.8597-.7709-1.2516 6.2667-3.8598zM114.6538 63.802l-6.2667 3.8597-.7709-1.2516 6.2667-3.8598zM116.9668 67.568l-6.2667 3.8597-.7709-1.2516 6.2667-3.8598zM119.2878 71.327l-6.2667 3.8597-.7709-1.2516 6.2667-3.8598zM121.6008 75.093l-6.2667 3.8597-.7709-1.2516 6.2667-3.8598zM123.9138 78.858l-6.2667 3.8597-.7709-1.2516 6.2667-3.8598zM126.2348 82.608l-6.2667 3.8597-.7709-1.2516 6.2667-3.8598zM128.5478 86.373l-6.2667 3.8597-.7709-1.2516 6.2667-3.8598z"/>
    <path fill="#895B2E" fill-rule="nonzero" d="M179.9199 53.252l.7492.4616a3.24 3.24 0 011.0544 4.4664l-24.6483 40.0182-6.2667-3.8598L175.4567 54.32a3.24 3.24 0 014.4632-1.068z"/>
    <path fill="#AD8768" fill-rule="nonzero" d="M172.9421 58.4103l6.2667 3.8598-.771 1.2516-6.2666-3.8598zM170.6141 62.1753l6.2667 3.8598-.771 1.2516-6.2666-3.8598zM168.2971 65.9303l6.2667 3.8598-.771 1.2516-6.2666-3.8598zM165.9891 69.6903l6.2667 3.8598-.771 1.2516-6.2666-3.8598zM163.6707 73.4546l6.2667 3.8598-.7709 1.2517-6.2667-3.8599zM161.3624 77.2156l6.2667 3.8599-.7709 1.2516-6.2667-3.8598zM159.0351 80.9693l6.2667 3.8598-.771 1.2516-6.2666-3.8598zM156.7181 84.7343l6.2667 3.8598-.771 1.2516-6.2666-3.8598z"/>
    <path fill="#D3D2F2" fill-rule="nonzero" d="M157 77.22c2.78 0 5.39-6.62 2.34-6.57-2.78 0-5.39 6.62-2.34 6.57z" opacity=".18"/>
    <path fill="#100C3D" fill-rule="nonzero" d="M135.8723 71.1206l12.738-.2268c13.8049-.2457 25.1952 10.7461 25.441 24.551l.6074 34.1146-62.73 1.1169-.6074-34.1146c-.2458-13.805 10.746-25.1953 24.551-25.441z"/>
    <path fill="#090833" fill-rule="nonzero" d="M188.17 193.8a4.24 4.24 0 011.68 2.17 2.53 2.53 0 01-1.14 2.54 4.07 4.07 0 01-2.84.56c-1.15-.14-2.38-.62-3.41-.1-.77.38-1.23 1.23-2 1.62-1.26.66-2.75-.13-3.95-.9l-9.64-6.19a11.77 11.77 0 01-1.88-1.4 5.63 5.63 0 01-1.59-3.27l14.27-.57c2-.08 3.34-.42 4.88.92 1.84 1.59 3.75 3.08 5.62 4.62zm-78.59 1.5a4.28 4.28 0 00-1.61 2.23 2.57 2.57 0 001.23 2.5 4.12 4.12 0 002.86.46c1.14-.19 2.35-.71 3.41-.22.78.35 1.27 1.18 2 1.55 1.28.61 2.75-.24 3.92-1l9.42-6.53a11.71 11.71 0 001.82-1.47 5.57 5.57 0 001.47-3.31l-14.28-.07c-2 0-3.35-.3-4.84 1.09-1.73 1.6-3.59 3.17-5.4 4.77z"/>
    <path fill="#FFD09A" fill-rule="nonzero" d="M135 107.41c1.47-.37 3.17-.55 4.38.37a4.6 4.6 0 011.14 1.41 11.92 11.92 0 011.57 6.29 2.14 2.14 0 01-.27 1.14 2.3 2.3 0 01-1.1.77c-2.14 1-4.42 2-6.74 1.6a15.69 15.69 0 00-1.92-.32c-1.49 0-2.8.86-4.1 1.58a19.39 19.39 0 01-4.46 1.75 6.65 6.65 0 00.71-2.64c.22-1.72.44-3.44.65-5.15.21-1.71.74-2.13 2.15-3.13 1.99-1.44 5.37-3.62 7.99-3.67zm11.8 7.03a13.76 13.76 0 005 2.57l9.2 3.23a43.72 43.72 0 00-.26-7.84 1.32 1.32 0 00-.21-.65 1.35 1.35 0 00-.52-.36l-13.3-6.3c-1.93-.92-5.85-2.32-4.61 1.26.97 2.71 2.58 6.13 4.7 8.09z"/>
    <path fill="#100C3D" fill-rule="nonzero" d="M165.23 190.94l11.47-.2a5.55 5.55 0 005.4-6.35l-6.91-50.31-.52-4.5-62.73 1.12-.23 4.29-1.86 53.67a3.08 3.08 0 00.872 2.2807 3.0822 3.0822 0 002.258.9298l19.62-.3505c1.6597-.0483 2.9846-1.3996 3-3.06l.22-31.22c.0318-5.3785 4.3521-9.7477 9.73-9.84 5.029-.0859 9.3264 3.6056 10 8.59l4 30.14c.3783 2.8234 2.8328 4.902 5.68 4.81zm27.16-88.52a26.69 26.69 0 012.35 10.58c-.12 3.64-1.65 7.39-4.66 9.43-2.61 1.75-5.93 2-9.07 1.93-3.14-.07-6.24-.53-9.34-.95l-15.85-2.17a15.36 15.36 0 01.37-11.12 3.13 3.13 0 011.08-1.47 3.29 3.29 0 011.38-.4 66.78 66.78 0 0110.48-.59c1.91 0 4.08.07 5.4-1.31a4.44 4.44 0 001-3.7 12.89 12.89 0 00-1.35-3.72 38.35 38.35 0 00-3.53-6.24c-3.28-4.42-8.21-7.24-12.71-10.41-1.91-1.35-3.89-3-4.44-5.22-.63-2.57.85-5.32 3.06-6.78 2.66-1.76 5.73-2.22 8.36-.44a100.32 100.32 0 018.54 6A66 66 0 01187 91.77a70.71 70.71 0 015.39 10.65zm-100.05 1.95a26.64 26.64 0 00-2 10.65c.25 3.63 1.91 7.33 5 9.25 2.66 1.67 6 1.83 9.13 1.61a91.55 91.55 0 009.3-1.28l15.76-2.73a15.28 15.28 0 00-.77-11.1 3.12 3.12 0 00-1.12-1.43 3.38 3.38 0 00-1.4-.36 66.83 66.83 0 00-10.49-.2c-1.91.11-4.07.21-5.44-1.12a4.42 4.42 0 01-1.11-3.67 12.92 12.92 0 011.21-3.76 38.33 38.33 0 013.3-6.36c3.12-4.54 8-7.53 12.34-10.86 1.86-1.41 3.77-3.09 4.25-5.38.54-2.58-1-5.29-3.3-6.66-2.72-1.67-5.81-2-8.38-.14a100.11 100.11 0 00-8.31 6.34 65.27 65.27 0 00-13 16.37 70.64 70.64 0 00-4.97 10.83z"/>
    <path fill="#161547" fill-rule="nonzero" d="M130.05 114.9c-5.87-.05-11.79 0-17.48 1.46-2.72.68-5.43 1.65-8.23 1.54a6.39 6.39 0 01-5.25-2.6c-1.11-1.79-.82-4.09-.34-6.14a46 46 0 019.39-18.91 90.66 90.66 0 019.68-9.52L128 71.67a6.54 6.54 0 00-1-.7c-2.72-1.67-5.81-2-8.38-.14a100.11 100.11 0 00-8.31 6.34 65.27 65.27 0 00-13 16.37 70.64 70.64 0 00-5 10.83 26.64 26.64 0 00-2 10.65c.25 3.63 1.91 7.33 5 9.25 2.66 1.67 6 1.83 9.13 1.61a91.55 91.55 0 009.3-1.28l15.76-2.73a15.23 15.23 0 00.55-6.97zm62.2-12.4a70.24 70.24 0 00-5.35-10.65A65.5 65.5 0 00173.31 76a101.26 101.26 0 00-8.54-6 6.28 6.28 0 00-1.86-.87c.6.61 1.12 1.13 1.42 1.5l6.63 8a100.85 100.85 0 016.64 8.66 51.75 51.75 0 017.5 18.15c.44 2.17.7 4.59-.51 6.43-1.84 2.82-5.89 2.81-9.24 2.49l-20-1.94a15.28 15.28 0 00.38 8.93l15.85 2.17a88.5401 88.5401 0 009.33 1c3.14.11 6.47-.17 9.07-1.93 3-2 4.55-5.78 4.66-9.42a26.45 26.45 0 00-2.39-10.67zm-80.09 27.88l-.22 4.29-1.87 53.67a3.09 3.09 0 00.8787 2.2812 3.0921 3.0921 0 002.2613.9292l7.38-.1304.24-6c.1867-4.6667.38-9.3567.58-14.07.37-8.64.79-17.28 1.32-25.91.27-4.28.56-8.55.9-12.82.06-.73.2-1.59.34-2.46l-11.81.22z"/>
    <path fill="#C60000" fill-rule="nonzero" d="M174.85 131.05l-62.89.86-.11-6.04 62.74-.69.07 3.71z"/>
    <path fill="#A00" fill-rule="nonzero" d="M144.62 131.46l30.23-.41-.19-2.16-.07-3.71-29.97.33z"/>
    <path fill="#100C3D" fill-rule="nonzero" d="M151.11 83.91l-5.47 3.59c-2.125 1.3943-4.875 1.3943-7 0l-5.47-3.59c-9.6486-6.3377-15.4594-17.106-15.46-28.65V37.47a24.42 24.42 0 0124.43-24.42c13.4868 0 24.42 10.9332 24.42 24.42v17.79c.0016 11.542-5.8052 22.31-15.45 28.65z"/>
    <path fill="#1B1B4F" fill-rule="nonzero" d="M164.24 67.69a43.18 43.18 0 01-7.92 7.4l-6.18 4.85a9.43 9.43 0 01-2.9 1.77c-3.52 1.11-6.94-2.07-8.73-5.3a39.11 39.11 0 01-3.68-10.25C130.91 48.9 134 31 137.31 13.53c-11.3961 2.2995-19.5912 12.3142-19.59 23.94v17.79c.0006 11.544 5.8114 22.3123 15.46 28.65l5.47 3.59c2.125 1.3943 4.875 1.3943 7 0l5.47-3.59a34.34 34.34 0 0013.12-16.22z"/>
    <rect width="43.67" height="20.33" x="120.47" y="36.76" fill="#FFD09A" fill-rule="nonzero" rx="8.95"/>
    <rect width="3.63" height="6.06" x="130.91" y="43.98" fill="#100C3D" fill-rule="nonzero" rx="1.6"/>
    <rect width="3.63" height="6.06" x="148.51" y="43.98" fill="#100C3D" fill-rule="nonzero" rx="1.6"/>
    <path fill="#C6976A" fill-rule="nonzero" d="M135.13 66.75c0-.06 0-.12.05-.18.2268-.739.9873-1.176 1.74-1a22 22 0 0010.21-.16c.7342-.202 1.5004.194 1.76.91l.06.17a1.41 1.41 0 01-1.09 1.74 24.85 24.85 0 01-11.57.19 1.42 1.42 0 01-1.16-1.67z"/>
  </g>
</svg>
