<svg xmlns="http://www.w3.org/2000/svg" width="236" height="130" viewBox="0 0 236 130">
  <g fill="none" fill-rule="evenodd" transform="translate(-22 -78)">
    <ellipse cx="143.65" cy="185.76" fill="#CFCFCF" fill-rule="nonzero" rx="113.85" ry="10.84"/>
    <ellipse cx="138.99" cy="196.63" fill="#CFCFCF" fill-rule="nonzero" rx="82.2" ry="10.84"/>
    <path fill="#22442E" fill-rule="nonzero" d="M121.3 110.75c3.5553-3.7995 8.9583-5.253 13.94-3.75a19.77 19.77 0 014.38-13.58A34 34 0 01150.3 85c6.8-3.74 14.25-6.31 21.81-6 14.58.52 28.24 12.77 32 28.71 7.07-1.9 14.21-3.8 21.47-3.91 7.26-.11 14.76 1.7 20.58 6.61 9.18 7.74 12.59 22.12 10.64 34.86-2 12.95-9 24.81-18.8 31.84-9.674 7.0153-22.0725 9.102-33.51 5.64a6.9 6.9 0 00-3.83-.52 9.07 9.07 0 00-3.12 2.06c-4.32 3.49-9.85 4.24-15.13 4.78-10.4 1-20.94 1.68-31.27-.15-10.33-1.83-20.51-6.28-28.18-14.3a29.68 29.68 0 00-4.75-4.51c-3.77-2.49-8.45-2.11-12.69-3.3-10.11-2.84-16.94-16-14.17-27.35 1.9286-7.9092 8.176-14.0403 16.12-15.82 2.53-.52 6.28.44 8.36-1.65 2.61-2.72 2.53-8.18 5.47-11.24z"/>
    <path fill="#29543A" fill-rule="nonzero" d="M160.76 95.44c2.18 5.58 7.83 10.17 13.77 9.4-4.52 6.07-3 15.43 2.56 20.58 5.56 5.15 14.13 6.26 21.29 3.78 0 6 4.84 11 10.32 13.36 11.13 4.77 25.5-.21 31.3-10.84a21 21 0 0016.17-3.63c-1.59-7.08-4.92-13.52-10.08-17.87-5.82-4.91-13.32-6.73-20.58-6.62-7.26.11-14.4 2-21.47 3.91-3.74-15.93-17.4-28.19-32-28.71a36 36 0 00-12.47 1.92c.43 5.44-.04 11.58 1.19 14.72z"/>
    <path fill="#326343" fill-rule="nonzero" d="M165.15 84.48a12.5 12.5 0 00-1 3.24.8.8 0 00.07.57.78.78 0 00.44.34.75.75 0 00.91-.52 11.37 11.37 0 01.37-1.53c.08-.26.16-.5.26-.75l.06-.16a.42.42 0 000-.1c0 .09 0 .09 0 0s.1-.24.16-.36a.76.76 0 00-.26-1 .75.75 0 00-1 .26l-.01.01zm1.05 9.92a6.73 6.73 0 00.69 2.13.74.74 0 001 .26.75.75 0 00.26-1c-.07-.13-.14-.27-.2-.41l.08.17a5.79 5.79 0 01-.42-1.53.73.73 0 00-.91-.51.7.7 0 00-.44.33l-.07.18a.65.65 0 000 .39l.01-.01zm6.8-11.03l-.85 3.21a.75.75 0 00.51.91.76.76 0 00.91-.52l.85-3.21a.74.74 0 00-.51-.91.75.75 0 00-.91.52zm-2.47 10.23l.64 1.94a.78.78 0 00.34.44.74.74 0 001.08-.83l-.59-1.94a.78.78 0 00-.34-.44.75.75 0 00-.57-.07.74.74 0 00-.51.9h-.05zm10.57-6.12a3.82 3.82 0 01.21.46l.06.13c0-.07 0-.06 0 0a1.67 1.67 0 01.08.2c.12.31.24.63.34.95.201.6358.3614 1.2838.48 1.94a.74.74 0 101.42-.39 16.14 16.14 0 00-1.32-4.05.75.75 0 00-1-.27.77.77 0 00-.27 1v.03zm6.7 5.15v.14c0 .05 0-.07 0 0V93.45a7.69 7.69 0 010 1v.33c0 .16 0 .31-.08.46a7.06 7.06 0 01-.25.93.74.74 0 101.42.39 9.18 9.18 0 00.31-4.26.75.75 0 00-.91-.52.76.76 0 00-.51.91l.02-.06zm4.99 8.37a.68.68 0 000 .14c0 .06 0 .08 0 0v.28c.01.1799.01.3601 0 .54.005.09.005.18 0 .27 0 .07 0 .09 0 0a.68.68 0 010 .14 3.78 3.78 0 01-.13.56 4.56 4.56 0 01-.18.52c0 .11 0-.09 0 0l-.06.12-.12.25c-.09.16-.19.31-.29.46l-.08.11c-.07.09.06-.08 0 0s-.13.16-.2.23a.74.74 0 001 1 6 6 0 001.44-5.09.74.74 0 00-1.42.39l.04.08zM177 95v1.59c0 .26 0 .52-.05.78s0 .25 0 .37 0 .18 0 0a2.1299 2.1299 0 010 .25.81.81 0 00.07.57.77.77 0 00.44.33.75.75 0 00.91-.51 15.76 15.76 0 00.16-3.43.75.75 0 00-.74-.73.74.74 0 00-.79.78zm6 7.4c-.06.29-.14.58-.23.87a4 4 0 01-.15.45l-.08.23-.06.13-.06.13a1.47 1.47 0 01-.1.22 3.84 3.84 0 01-.21.4c-.14.27-.31.53-.48.79a.75.75 0 00.26 1 .76.76 0 001-.27 10.1 10.1 0 001.52-3.57.75.75 0 00-.52-.9.73.73 0 00-.9.51l.01.01zm-6.19 8.75l-.16 2.74a.74.74 0 00.73.74.77.77 0 00.74-.74l.16-2.74a.74.74 0 00-.74-.74.76.76 0 00-.73.74zm8.46 1.27l-.81 2.58a.73.73 0 00.51.9.76.76 0 00.91-.51l.81-2.58a.75.75 0 00-.52-.91.74.74 0 00-.9.52zm-5.13 6.74a10.23 10.23 0 01-1 1.59l.12-.15c-.14.18-.28.35-.43.52a.79.79 0 00-.22.52.73.73 0 00.22.52.74.74 0 001 0 12 12 0 001.56-2.25.76.76 0 00-.27-1 .74.74 0 00-1 .26l.02-.01zm9.52 2.43a8.46 8.46 0 01-.75 1.35l-.22.3s.09-.12 0 0l-.06.07-.12.15c-.18.2-.36.39-.55.57a.75.75 0 000 1 .74.74 0 001 0 8.19 8.19 0 001.91-2.71.81.81 0 00.08-.57.78.78 0 00-.34-.44.75.75 0 00-.57-.07.72.72 0 00-.44.34l.06.01zm6.42 2.41l-1.42 1.8a.79.79 0 00-.22.52.73.73 0 00.22.52.72.72 0 00.52.21.68.68 0 00.52-.21l1.42-1.8a.83.83 0 00.21-.52.76.76 0 00-.21-.52.7401.7401 0 00-.52-.22.7101.7101 0 00-.52.22zm3.31-16.08c0 .09 0 .08 0 0a.5.5 0 010 .12 1.8699 1.8699 0 010 .25l-.09.43a8.5198 8.5198 0 01-.26.86l-.08.21s-.11.27 0 .11c-.06.13-.12.27-.19.4a8 8 0 01-.46.81.74.74 0 00.27 1 .75.75 0 001-.27 9.31 9.31 0 001.38-3.92.74.74 0 00-.73-.74.77.77 0 00-.74.74h-.1zm-6.6 5c0 .24 0 .48-.07.72v-.19a8.29 8.29 0 01-.42 1.7.69.69 0 00.07.56.74.74 0 00.44.34.75.75 0 00.91-.51 8.7 8.7 0 00.51-2.62.74.74 0 00-1.47 0h.03zm9.99 12.91l-.18 3.39a.74.74 0 00.74.73.75.75 0 00.73-.73l.19-3.39a.75.75 0 00-.74-.74.77.77 0 00-.74.74zm3.83-11.5l-.79 1.62a.87.87 0 00-.07.57.75.75 0 00.91.52.78.78 0 00.44-.34l.78-1.63a.78.78 0 00.08-.56.74.74 0 00-1.35-.18zm-6.28 3.47l1.46-1.29a.75.75 0 000-1 .74.74 0 00-.52-.22.81.81 0 00-.53.22l-1.45 1.29a.76.76 0 00-.21.52.78.78 0 00.21.52.73.73 0 00.52.21.76.76 0 00.52-.21v-.04zm10.51-6.49c.23-.14.46-.28.7-.4l.39-.19s.19-.09 0 0l.2-.08a7.63 7.63 0 011.56-.41.74.74 0 00.51-.91.75.75 0 00-.9-.51 8.48 8.48 0 00-3.2 1.19.75.75 0 00-.26 1 .73.73 0 001 .26v.05zm-.79 19.52v2.74a.74.74 0 00.73.74.75.75 0 00.74-.74v-2.74a.74.74 0 00-1.47 0zm-4.82 5.52l.47 1.46a.83.83 0 00.34.44.74.74 0 001-.27.69.69 0 00.07-.56l-.47-1.46a.83.83 0 00-.34-.44.74.74 0 00-1 .27.69.69 0 00-.07.56zm7.18-17.18l-1.13 2.42a.78.78 0 00-.08.56.75.75 0 00.34.44.74.74 0 001-.26l1.13-2.42a.8.8 0 00.07-.57.74.74 0 00-.34-.44.73.73 0 00-1 .27h.01zm8.09-6.37a13.9399 13.9399 0 011.14-1l.13-.1c.07-.06-.13.1 0 0h.07l.32-.23c.21-.15.42-.3.64-.43a.735.735 0 00-.74-1.27 14.11 14.11 0 00-2.57 2.05.74.74 0 001 1l.01-.02zm-5.12 17.71l.16 1.77a.77.77 0 00.22.52.7101.7101 0 00.52.22.7401.7401 0 00.52-.22.72.72 0 00.21-.52l-.16-1.77a.77.77 0 00-.22-.52.7101.7101 0 00-.52-.22.7401.7401 0 00-.52.22.72.72 0 00-.21.52zm3.09 8.58l.81 2.26a.83.83 0 00.34.44.75.75 0 00.57.07.74.74 0 00.51-.9l-.81-2.26a.83.83 0 00-.34-.44.75.75 0 00-.57-.07.74.74 0 00-.51.9zm8.99-1.51a14.3 14.3 0 01-.94-3.4.74.74 0 00-1.42.39 14.3 14.3 0 00.9 3.43.87.87 0 00.34.44.75.75 0 00.57.07.73.73 0 00.51-.9l.04-.03zm-3.86-12.04c.07-.25.15-.5.23-.75l.15-.39.06-.14v-.1c0 .09-.05.11 0 0 .2174-.4765.461-.9406.73-1.39a.75.75 0 00-.26-1 .76.76 0 00-1 .27 12.11 12.11 0 00-1.34 3.09.75.75 0 00.52.91.74.74 0 00.9-.52l.01.02zm-3.45-4.01l1.77-2.42a.73.73 0 00.08-.56.75.75 0 00-.91-.52.93.93 0 00-.44.34l-1.77 2.42a.75.75 0 00-.08.57.78.78 0 00.34.44.75.75 0 00.57.07.82.82 0 00.44-.34zm8.9-10.48l3.55-1a.73.73 0 00.51-.9.74.74 0 00-.9-.52l-3.55 1a.74.74 0 10.39 1.42zm21.03 10.14c.1587.5651.2823 1.1396.37 1.72v.07a1.49 1.49 0 000 .21v1.35a.74.74 0 101.47 0 14 14 0 00-.52-3.75.74.74 0 00-.9-.51.75.75 0 00-.52.91h.1zm-5.51 3.67v2.91a.74.74 0 101.48 0v-2.91a.74.74 0 10-1.48 0zm-1.72-11.74a5.77 5.77 0 01.63.68s.09.11 0 0l.12.17.26.4c.08.13.15.26.22.39s.07.15.1.22.05.16.09.19c.04.03-.05-.12 0 0a.36.36 0 000 .09c.0222.0782.0489.155.08.23 0 .15.1.3.14.45a.75.75 0 00.9.52.76.76 0 00.52-.91 7.68 7.68 0 00-2.13-3.55.74.74 0 00-1 0 .76.76 0 000 1l.07.12zm-5.22 12.71a14.06 14.06 0 010 1.59c0 .26 0 .52-.05.77s0 .25 0 .37v.06c-.0048.08-.0048.16 0 .24a.86.86 0 00.07.57.78.78 0 00.44.34.75.75 0 00.91-.52 15 15 0 00.17-3.42.74.74 0 10-1.47 0h-.07zm-5.33 5.97a15 15 0 01-.08 3.07.75.75 0 00.74.74.74.74 0 00.52-.22.81.81 0 00.21-.52 15 15 0 00.08-3.07.77.77 0 00-.74-.74.75.75 0 00-.73.74zm-1.22-10.68l-1 3.24a.73.73 0 00.51.9.76.76 0 00.91-.51l.95-3.23a.76.76 0 00-.52-.91.75.75 0 00-.9.51h.05zm-1.69-4.82l1.94-1.28a.78.78 0 00.34-.44.76.76 0 00-.08-.57.73.73 0 00-1-.26l-1.94 1.25a.78.78 0 00-.34.44.73.73 0 001.08.83v.03zm8.61-.12c.08.26.15.53.21.8s.06.29.09.43V119.38a.74.74 0 00.74.73.76.76 0 00.74-.73 11.54 11.54 0 00-.48-3.6.74.74 0 00-1.42.4h.12z"/>
    <path fill="#895B2E" fill-rule="nonzero" d="M141.8196 149.0022l-6.256 3.8272-24.4401-39.95a3.2285 3.2285 0 011.0692-4.4387l.748-.4577a3.2285 3.2285 0 014.4388 1.0692l24.44 39.95z"/>
    <path fill="#AD8768" fill-rule="nonzero" d="M119.818 114.7004l-6.2667 3.8599-.771-1.2517 6.2667-3.8598zM122.1408 118.46l-6.2667 3.8597-.7709-1.2516 6.2667-3.8598zM124.4543 122.2268l-6.2667 3.8598-.7709-1.2517 6.2667-3.8598zM126.7753 125.9868l-6.2667 3.8598-.7709-1.2517 6.2667-3.8598zM129.0878 129.75l-6.2667 3.8597-.7709-1.2516 6.2667-3.8598zM131.4008 133.506l-6.2667 3.8597-.7709-1.2516 6.2667-3.8598zM133.7218 137.266l-6.2667 3.8597-.7709-1.2516 6.2667-3.8598zM136.0348 141.031l-6.2667 3.8597-.7709-1.2516 6.2667-3.8598z"/>
    <path fill="#895B2E" fill-rule="nonzero" d="M187.4016 107.91l.7067.4353c1.5236.9385 1.9978 2.9346 1.0594 4.4582l-24.6483 40.0183-6.2667-3.8598 24.6483-40.0183a3.24 3.24 0 012.0338-1.459 3.242 3.242 0 012.4668.4254z"/>
    <path fill="#AD8768" fill-rule="nonzero" d="M180.4291 113.0603l6.2667 3.8598-.771 1.2516-6.2666-3.8598zM178.1066 116.8334l6.2667 3.8598-.7709 1.2517-6.2667-3.8598zM175.7891 120.5883l6.2667 3.8598-.771 1.2516-6.2666-3.8598zM173.4701 124.3483l6.2667 3.8598-.771 1.2516-6.2666-3.8598zM171.482 127.17l6.256 3.8272-.7645 1.2497-6.256-3.8273zM168.8441 131.8733l6.2667 3.8598-.771 1.2516-6.2666-3.8598zM166.5271 135.6283l6.2667 3.8598-.771 1.2516-6.2666-3.8598zM164.2101 139.3933l6.2667 3.8598-.771 1.2516-6.2666-3.8598z"/>
    <path fill="#CFCFCF" fill-rule="nonzero" d="M58.92 160.78a20 20 0 012.86-14.71 18.87 18.87 0 01-14.9-8.63 9.22 9.22 0 01-1.65-4.9 9.49 9.49 0 011.7-4.82c2.14-3.39 5.68-5.68 8.92-7.92a.83.83 0 00.33-.34.85.85 0 000-.47c-1.48-5.7-3.09-11.37-2.33-17.33.74-4.58 3.12-9.72 7.88-11.23a9.75 9.75 0 017.69 1 13.09 13.09 0 015.17 5.91c1.32 2.88 2 8 5.58 9 2.62.68 5.07-1.44 7-3.37a28.66 28.66 0 017.26-5.84c2.79-1.4 6.23-1.85 9-.43 3.17 1.61 4.79 5.17 5.92 8.55 3.4 10.18 4.48 21.5.81 31.59a55.82 55.82 0 01-3.93 8.22 40 40 0 01-6.4 9c-3 2.95-6.65 5-10.3 7.09-6.56 3.69-13.13 7.37-19.74 11-1.59.86-2.3 1.32-3.82.26a15.86 15.86 0 01-3.16-3.23 19.87 19.87 0 01-3.89-8.4z"/>
    <path fill="#008F3B" fill-rule="nonzero" d="M55.13 133.52a29.72 29.72 0 0110.47-7.28c10-4 17.4.06 26.69 3.67.8-7.77 3.64-14.73 10.6-17 5.69-1.86 9.61 1.4 14.67 3.86 6.58 3.19 10.87-5.58 16.09-8.61a24.29 24.29 0 0120.27-2.16 23.39 23.39 0 0111 8.06c2.83 3.83 4.45 8.58 5.57 13.42.49 2.09.48 5.18 1.31 7.06 1.94 4.38 7 1.2 10.28.39 3.08-.74 6.64-.71 9 1.84.92 1 1.56 2.35 2.4 3.46 2.76 3.66 7 .87 10.16.17a15.27 15.27 0 0112.6 2.78c4.8 3.63 7.9 10.22 8.0012 16.92.1388 13.29-11.8912 23.78-21.6912 27-8.1 2.66-16.64 2.68-25.06 3-12.84.54-25.68 1.88-38.53 1.09-12.85-.79-25.87-3.86-37-11.54-8.046 7.5526-19.5997 10.0556-30.05 6.51-3.38-1.2-6.72-3-10.23-2.88-2.31.1-4.51 1.08-6.74 1.79-8.88 2.93-24.94-.69-22.62-15.62 1-6.36 5.36-8.06 9.27-11.31 5.08-4.24 5.13-11.67 8.32-17.44a35.72 35.72 0 015.22-7.18z"/>
    <path fill="#006D2C" fill-rule="nonzero" d="M202.23 160.52c-2.76 5.42-9.49 7.92-15.55 7.32-6.06-.6-11.58-3.71-16.65-7.1-2.11-1.4-4.42-3.37-4.15-5.88-2.2198 6.7256-7.809 11.7909-14.72 13.34-5.77 1.22-11.88-.23-17.06-3-2.92-1.59-15.82-9.54-14.14-13.82-1.6803 4.3051-5.6959 7.2525-10.3067 7.565-4.6109.3126-8.9874-2.066-11.2333-6.105-3.112 9.0327-10.5233 15.9189-19.76 18.36a29 29 0 01-23.24-4.36c-2.6-1.77-2-2-4.69-1-2 .7-3.62 2-5.7 2.62a20 20 0 01-8 .58c-3.53-.48-4.67-1.75-4.87 2.52a12.8 12.8 0 003.8 10c4.74 4.56 12.87 5.59 19 3.64 2.22-.71 4.43-1.69 6.74-1.79 3.51-.16 6.84 1.68 10.22 2.88 10.4499 3.5525 22.0072 1.0487 30.05-6.51 11.18 7.68 24.21 10.74 37.06 11.54 12.85.8 25.68-.55 38.53-1.09 8.42-.35 17-.37 25-3 9.6-3.15 21.33-13.28 21.68-26.17-.15 5.35-19.56.18-22-.51l-.01-.03z"/>
    <path fill="#009B3F" fill-rule="nonzero" d="M41 163.72l1.94 1a.81.81 0 00.57.08.78.78 0 00.44-.34.75.75 0 00.07-.57.78.78 0 00-.34-.44l-1.93-1a.75.75 0 00-.57-.07.7.7 0 00-.44.33.71.71 0 00-.07.57.68.68 0 00.33.44zm5.63-6.23a4.93 4.93 0 002.11 2.87.74.74 0 00.75-1.27l-.25-.17h.06-.06l-.11-.1a6.09 6.09 0 01-.44-.44s-.12-.17 0-.06v-.06c-.06-.08-.11-.17-.16-.25a3.66 3.66 0 01-.28-.56l.07.18a4.72 4.72 0 01-.18-.53.74.74 0 10-1.42.39h-.09zm7.37 3.04a11.81 11.81 0 001.84 3 4.78 4.78 0 002.95 1.57.73.73 0 00.73-.74.74.74 0 00-.73-.73h-.22l-.32-.1-.18-.08-.29-.16-.27-.19c-.18-.12.1.09-.07 0l-.12-.11a5.9 5.9 0 01-.5-.5l-.11-.13v-.05c-.08-.1-.15-.21-.22-.31s-.29-.45-.42-.68c-.26-.47-.49-1-.73-1.46a.73.73 0 00-1-.26.76.76 0 00-.27 1l-.07-.07zm-3.26-10.1c.15.09.29.2.43.3.14.1-.12-.1 0 0l.08.06.2.17a9.27 9.27 0 01.78.75l.35.39.17.21.08.1c.2116.29.4085.5903.59.9a.735.735 0 001.27-.74 10.72 10.72 0 00-3.23-3.44.73.73 0 00-1 .27.76.76 0 00.26 1l.02.03zm2.38-7.14a10 10 0 011.38 1.45l-.12-.15a9 9 0 01.56.81.75.75 0 001 .26.73.73 0 00.26-1 10.52 10.52 0 00-2.05-2.41.79.79 0 00-.52-.22.73.73 0 00-.52.22.75.75 0 000 1l.01.04zm6.78-5.49l2.58 2.1a.83.83 0 00.52.21.76.76 0 00.52-.21.74.74 0 000-1l-2.58-2.1a.78.78 0 00-.52-.21.76.76 0 00-.52.21.74.74 0 000 1zm-.14 12.94a7.09 7.09 0 004.51 3.81.75.75 0 00.91-.52.74.74 0 00-.52-.9 8.7174 8.7174 0 01-.63-.21h-.05l-.14-.07a1.59 1.59 0 01-.29-.15c-.2-.1-.39-.22-.58-.34l-.12-.09-.1-.07-.07-.05-.14-.12c-.16-.15-.33-.3-.48-.46a2.2 2.2 0 01-.2-.23l-.12-.14c-.1-.12.07.1 0 0A5.8 5.8 0 0161 150a.74.74 0 00-1-.26.75.75 0 00-.26 1h.02zm5.79 13.68a8.49 8.49 0 003.86 2 .76.76 0 00.91-.52.75.75 0 00-.52-.9 7.75 7.75 0 01-.94-.27l-.22-.08h-.11c-.1 0 .11 0 0 0l-.45-.21c-.28-.15-.56-.31-.82-.48l-.19-.14-.07-.12c-.09-.06.09.08 0 0l-.38-.33a.75.75 0 00-1 0 .74.74 0 000 1l-.07.05zm11.3-3.42a1.56 1.56 0 01.16.2l.08.1.29.42a7.86 7.86 0 01.51.89 3.88 3.88 0 01.22.46l.06.11c0-.07 0-.07 0 0l.09.23a8.57 8.57 0 01.31 1A.7438.7438 0 1080 164a10.79 10.79 0 00-2.1-4.06.75.75 0 00-1 0 .77.77 0 000 1.05l-.05.01zm8.67-3.23l.49 4a.76.76 0 00.74.74c.36 0 .78-.33.73-.74l-.49-4a.76.76 0 00-.74-.73.73.73 0 00-.73.73zm4.85-9.16a28.85 28.85 0 011.11 4.2.73.73 0 00.9.51.75.75 0 00.52-.9 28.85 28.85 0 00-1.11-4.2.75.75 0 00-.91-.51.73.73 0 00-.51.9zm-5.75-14.48l.19.13c-.09-.08 0 0 0 0l.33.29.31.32.15.18.08.09c.06.07-.11-.15 0 0a5.87 5.87 0 01.47.75l.11.21a.37.37 0 00.05.11c0 .05 0 .16 0 0 0 .14.11.29.15.44a.75.75 0 00.91.51.74.74 0 00.51-.91 6.47 6.47 0 00-2.56-3.41.74.74 0 00-1 .26.75.75 0 00.26 1l.04.03zm-14.25-5.07a11 11 0 011.79 1 3.69 3.69 0 01.4.29c-.08-.07 0 0 0 0l.09.07.2.17c.27.23.52.47.77.72a.75.75 0 001 0 .76.76 0 000-1.05 11.82 11.82 0 00-3.56-2.5.76.76 0 00-1 .26.75.75 0 00.27 1l.04.04zm9.77 11.16a19.05 19.05 0 011.84 4 .74.74 0 00.9.51.75.75 0 00.52-.91 21.35 21.35 0 00-2-4.38.76.76 0 00-1-.27.75.75 0 00-.26 1v.05zm-5.42 5.83c0 .06 0 .07 0 0l.07.11.16.2.29.43c.18.28.34.57.5.87.08.14.15.29.22.43l.1.24.06.12c.13.32.24.64.35 1a.74.74 0 00.9.52.75.75 0 00.52-.91 12.57 12.57 0 00-2.14-4 .73.73 0 00-1 0 .77.77 0 000 1l-.03-.01zM70 154.27a9.44 9.44 0 01.45.9s.09.21 0 .07a1.86 1.86 0 01.1.25c.06.14.11.29.17.44a12 12 0 01.46 1.88.73.73 0 00.9.51.75.75 0 00.52-.9 11.86 11.86 0 00-1.36-3.89.735.735 0 00-1.27.74H70zM67 135c.21.13.4.27.6.42l-.15-.11a9 9 0 011.61 1.6l-.12-.15.2.26a.75.75 0 00.44.34.73.73 0 00.56-.07.75.75 0 00.27-1 10 10 0 00-2.67-2.55.73.73 0 00-1 .26.75.75 0 00.26 1zm-.51 9.58a4.56 4.56 0 001.63 2.59.77.77 0 00.52.22.74.74 0 00.52-.22.72.72 0 00.21-.52.68.68 0 00-.21-.52 4 4 0 01-.71-.71l.11.15a3.9 3.9 0 01-.52-.91l.07.18a4.88 4.88 0 01-.2-.65.74.74 0 10-1.42.39zm30.07.5a13.14 13.14 0 003 3.53.83.83 0 00.52.21.76.76 0 00.52-.21.75.75 0 000-1.05A12.75 12.75 0 0199 146l-.35-.42-.07-.09c.09.13 0 0 0 0s-.11-.15-.17-.23c-.21-.31-.42-.62-.61-.94a.735.735 0 00-1.27.74l.03.02zm10.11 8.02a8.72 8.72 0 003.09 1.31.74.74 0 10.39-1.42c-.25-.05-.5-.12-.75-.19l-.39-.14-.19-.07h-.1l-.1-.05-.19-.08-.34-.18-.68-.41a.74.74 0 00-1 .26.75.75 0 00.27 1l-.01-.03zm11.01-3.67a15.53 15.53 0 002.17-4.37.73.73 0 00-.51-.9.76.76 0 00-.91.51c-.12.38-.25.76-.4 1.13l-.06.14c0-.07 0-.06 0 0l-.09.2c-.08.18-.17.36-.26.54a15.34 15.34 0 01-1.2 2 .735.735 0 001.27.74l-.01.01zm-14.53-7.12l2.43 2.73a.74.74 0 001-1l-2.43-2.73a.73.73 0 00-1 0 .76.76 0 000 1zm-7.3-11.19a16.49 16.49 0 000 4.91.74.74 0 00.91.51.75.75 0 00.51-.9c0-.28-.08-.64-.1-1-.02-.36 0-.72 0-1.09v-1V131.72a1.25 1.25 0 000-.19.74.74 0 00-1.42-.39l.1-.02zm3.83-8.48l1.46-3.55a.74.74 0 10-1.42-.39l-1.45 3.55a.73.73 0 00.51.9.75.75 0 00.9-.51zm2.92 8.68a6.07 6.07 0 00.59 3.27.74.74 0 001 .26.76.76 0 00.26-1 1 1 0 01-.09-.18c0 .18 0 0 0 0l-.12-.34a5.47 5.47 0 01-.16-.7.3.3 0 010-.1v.1a1.49 1.49 0 010-.21v-.36a5.5298 5.5298 0 010-.71.71.71 0 00-.22-.52.74.74 0 00-.52-.22.76.76 0 00-.74.74v-.03zm7.77 7.45c.16.6.3 1.2.4 1.81 0 .14 0 .28.07.42a.59.59 0 010 .14c0 .08 0 .09 0 0a.77.77 0 010 .15c0 .3.07.61.09.92a.75.75 0 00.73.73.74.74 0 00.74-.73 20 20 0 00-.66-3.91.75.75 0 00-.9-.52.77.77 0 00-.52.91l.05.08zm7.09-4.03a6.72 6.72 0 01.28.9c0 .13.05.26.07.4v.13a1.49 1.49 0 000 .21c.015.2898.015.5802 0 .87.01.1565.01.3135 0 .47v.34a.74.74 0 001.42.39 7.84 7.84 0 00-.34-4.1.75.75 0 00-.9-.52.76.76 0 00-.52.91h-.01zm-6.06-6.44c.19.33.36.67.52 1 .16.33.08.18.16.39l.18.49a14 14 0 01.55 2.12.73.73 0 00.9.52.76.76 0 00.51-.91 13.75 13.75 0 00-1.54-4.36.75.75 0 00-1-.27.76.76 0 00-.27 1l-.01.02zm-5.71-7.83L105 124a.76.76 0 00.52.91.74.74 0 00.9-.52l.65-3.55a.74.74 0 00-1.42-.39l.04.02zm7.45-.41a11.79 11.79 0 002.24 2 .75.75 0 00.57.07.74.74 0 00.44-.33.76.76 0 00.08-.57.88.88 0 00-.34-.44l-.39-.29.15.12a11.12 11.12 0 01-1.71-1.65.74.74 0 00-.52-.22.75.75 0 00-.74.74.87.87 0 00.22.52v.05zm10.43 29.16a10.24 10.24 0 001.55 4.41.75.75 0 001 .26.73.73 0 00.26-1c-.19-.3-.37-.61-.53-.92l-.21-.45c.06.12-.05-.13-.06-.16a1.55 1.55 0 01-.08-.23 8.51 8.51 0 01-.3-1c0-.17-.07-.33-.1-.49-.03-.16 0-.19 0-.28 0-.09 0-.09 0 0v-.14a.76.76 0 00-.74-.73.74.74 0 00-.74.73h-.05zm7.26-6.29v3.39a.76.76 0 00.74.74.75.75 0 00.73-.74v-3.39a.74.74 0 00-1.47 0zm-6.41-9.07l-.65 3.39a.74.74 0 101.42.39l.65-3.38a.76.76 0 00-.52-.91.75.75 0 00-.9.51zM123 123.38l-1 3.06a.74.74 0 00.51.9.76.76 0 00.91-.51l1-3.06a.75.75 0 00-.51-.91.76.76 0 00-.91.52zm7.25-8.44l-1.92 2.92a.75.75 0 00.26 1 .76.76 0 001-.27l1.92-2.91a.74.74 0 00-1.27-.75l.01.01zm1.69 13.63l-.16 3.87a.74.74 0 101.47 0l.16-3.87a.74.74 0 00-.74-.73.73.73 0 00-.73.73zm6.52 20.2l1 2.74a.74.74 0 101.42-.4l-1-2.73a.76.76 0 00-.91-.52.74.74 0 00-.51.91zm-4.16 9.07l2.24 3.08a.83.83 0 00.44.34.81.81 0 00.57-.08.75.75 0 00.26-1l-2.24-3.08a.74.74 0 00-.44-.33.73.73 0 00-.83 1.08v-.01zm12.11 6.16a10.39 10.39 0 004.07-.49.74.74 0 10-.39-1.42 9.4602 9.4602 0 01-.91.26l-.5.1h-.31c-.642.06-1.288.06-1.93 0a.74.74 0 100 1.47l-.03.08zm12.74-4.72c.16-.25.33-.48.51-.72l.13-.18s-.08.11 0 0l.06-.08.28-.35c.38-.45.77-.88 1.18-1.3a.74.74 0 00-1-1 20.47 20.47 0 00-2.37 2.89.74.74 0 00.26 1 .76.76 0 001-.26h-.05zM147 156.81l.71-.35.36-.16h.09l.18-.08c.5-.1933 1.0108-.357 1.53-.49a.74.74 0 00-.39-1.42 14.85 14.85 0 00-3.22 1.26.75.75 0 00-.27 1 .76.76 0 001 .26l.01-.02zm10.74-4.45l2.39-3.89a.735.735 0 00-1.27-.74l-2.39 3.89a.73.73 0 00.26 1 .75.75 0 001-.27l.01.01zm6.65-15.24a14.13 14.13 0 01-.62 3.84.74.74 0 101.42.39 16.38 16.38 0 00.67-4.23.73.73 0 00-.73-.73.75.75 0 00-.74.73zm3.94 15.4a34.47 34.47 0 012.87 5.77.74.74 0 101.42-.39 36.62 36.62 0 00-3-6.12c-.5-.81-1.77-.07-1.27.74h-.02zm1.91-6.98l1.13 2.74a.79.79 0 00.34.44.81.81 0 00.57.08.78.78 0 00.44-.34.75.75 0 00.07-.57l-1.13-2.74a.87.87 0 00-.34-.44.75.75 0 00-.57-.07.68.68 0 00-.44.34.65.65 0 00-.07.56zM164 123.78c.15.3.3.6.43.91l.12.26c-.06-.13 0 .06 0 .09s.13.33.2.49a19.13 19.13 0 01.61 2 .74.74 0 00.9.51.75.75 0 00.52-.9 19.65 19.65 0 00-1.54-4 .73.73 0 00-1-.26.75.75 0 00-.27 1l.03-.1zm-5.26 10.76a14.06 14.06 0 010 1.59l-.06.77v.43c-.0048.08-.0048.16 0 .24a.8.8 0 00.07.57.78.78 0 00.44.34.75.75 0 00.81-.48 15 15 0 00.18-3.42.74.74 0 00-1.47 0l.03-.04zM150 136.8a5.35 5.35 0 010 1c0 .08 0 .08 0 0v.12a1.16 1.16 0 010 .18 5.47 5.47 0 01-.28.94c.06-.16 0 0 0 .05l-.11.22c-.07.14-.16.28-.24.42l-.14.2a.61.61 0 00-.07.1c0-.07 0-.07 0 0a.76.76 0 000 1.05.75.75 0 001 0 6 6 0 001.35-4.23.74.74 0 10-1.47 0l-.04-.05zm-9-3.51l.66 3.71a.74.74 0 00.9.52.77.77 0 00.52-.91l-.66-3.71a.73.73 0 00-.9-.51.75.75 0 00-.52.9zm-1.84-17.67A15.13 15.13 0 00138 119a.75.75 0 00.52.9.74.74 0 00.9-.51c.1229-.5482.2765-1.089.46-1.62.09-.26.19-.53.3-.79-.07.17 0 0 0 0l.1-.22.18-.38a.76.76 0 00-.26-1 .75.75 0 00-1 .27l-.04-.03zm11.72-4.62l.69.49s.13.11 0 0l.07.06.16.13c.11.09.23.18.33.28a11.33 11.33 0 011.2 1.2.74.74 0 001-1 13.14 13.14 0 00-2.73-2.37.75.75 0 00-1 .26.76.76 0 00.27 1l.01-.05zm4.66 10.83c.194.5344.3478 1.0826.46 1.64 0 .13.05.27.07.4.02.13.05.26 0 .09v.18c0 .3 0 .59.06.88a.74.74 0 00.73.74.75.75 0 00.74-.74 11.25 11.25 0 00-.68-3.58.76.76 0 00-.91-.51.73.73 0 00-.51.9h.04zm-9.54-.64a10.43 10.43 0 01.18 4.12.76.76 0 00.52.91.75.75 0 00.9-.51 12 12 0 00-.18-4.91.74.74 0 10-1.42.39zM143.67 108a7.26 7.26 0 00-3.44.9.72.72 0 00-.26 1 .74.74 0 001 .27l.35-.18a1.21 1.21 0 01.2-.09h-.08.11c.24-.09.48-.17.73-.24l.38-.08h.27a.47.47 0 00.16 0h.61a.73.73 0 00.73-.73.74.74 0 00-.73-.74l-.03-.11zm32.7 50.8l1.91 1.95a.73.73 0 001 0 .75.75 0 000-1l-1.91-2a.73.73 0 00-1 0 .74.74 0 000 1v.05zm4.01-8.97c-.09-.32-.16-.64-.22-1a1.7 1.7 0 000-.22c0-.0933 0-.0933 0 0v-.11-.49-1-.68a1.5998 1.5998 0 010-.17.76.76 0 00-.52-.91.74.74 0 00-.9.51 10 10 0 00.22 4.43.74.74 0 00.91.51.73.73 0 00.51-.9v.03zm8.9-7.34c.18.19.36.39.53.59l.07.09s.08.1 0 0l.05.08.24.34c.15.22.28.44.41.67l.17.35.08.17c0 .05.13.29 0 .08a.79.79 0 00.34.44.81.81 0 00.57.08.78.78 0 00.44-.34.75.75 0 00.07-.57 9.55 9.55 0 00-2-3.05.74.74 0 00-1 1l.03.07zm-5.28 1.78l.12.29a.9999.9999 0 00.05.11c.07.17.14.34.2.52.13.33.24.66.34 1 .21.6897.3802 1.3908.51 2.1a.74.74 0 00.91.51.75.75 0 00.51-.9 18.64 18.64 0 00-1.37-4.37.74.74 0 00-1-.26.75.75 0 00-.26 1H184zm12.65 11.41a10 10 0 01-.83 5 .75.75 0 00.26 1 .75.75 0 001-.27 11.53 11.53 0 001-5.7.77.77 0 00-.74-.74.75.75 0 00-.74.74l.05-.03zm-6.94-2.68V153.86a3.25 3.25 0 010 .54c.005.0666.005.1334 0 .2v.14a8.1 8.1 0 01-.28 1c-.06.16 0-.07 0 .07l-.11.24-.27.47a.73.73 0 00.26 1 .74.74 0 001-.26 6.22 6.22 0 00.81-4.61.74.74 0 00-.91-.52.76.76 0 00-.51.91l.01-.04zm-.22 10.69a6.65 6.65 0 01-.5.76l.11-.15a7.05 7.05 0 01-1.28 1.28l.15-.11-.3.22a.78.78 0 00-.34.44.75.75 0 00.07.57.75.75 0 001 .26 8.24 8.24 0 002.36-2.52.7418.7418 0 00-1.28-.75h.01zm-6.39-10.11v2.9a.74.74 0 101.48 0v-2.9a.74.74 0 10-1.48 0zm27.3-7.73l.49.3.22.15.13.1c.11.08-.07-.06 0 0a8.6 8.6 0 01.83.77c.1277.1333.2478.2735.36.42.07.09 0 .06 0 0s.08.1.09.13a1.77 1.77 0 01.16.22 8.91 8.91 0 01.57 1 .73.73 0 001 .27.76.76 0 00.27-1 8.19 8.19 0 00-3.38-3.61.735.735 0 00-.74 1.27v-.02zm6.44 10.03v.1c0 .04 0-.13 0 0v.92a.41.41 0 000 .11c0-.11 0-.13 0 0v.17a4.27 4.27 0 01-.21.72.42.42 0 000 .1c0-.1 0-.11 0 0a.61.61 0 01-.07.14c-.06.13-.13.25-.2.37a.735.735 0 001.27.74 5.31 5.31 0 00.69-3.65.74.74 0 00-.91-.51.76.76 0 00-.51.91l-.06-.12zm-7.93 1.12a4 4 0 010 .6v-.2a5.09 5.09 0 01-.26 1 .75.75 0 00.52.91.73.73 0 00.56-.08.79.79 0 00.34-.44 5.57 5.57 0 00.33-1.81.77.77 0 00-.22-.52.74.74 0 00-.52-.22.77.77 0 00-.74.74l-.01.02zm-5.7-13.37c.19.32.36.66.53 1 .08.16.15.32.22.48l.06.14c0-.06 0-.05 0 0l.09.25a14.4 14.4 0 01.65 2.12.73.73 0 00.9.51.74.74 0 00.52-.9 15.2 15.2 0 00-1.72-4.36.735.735 0 00-1.27.74l.02.02zm-.9 8.37c.07.22.13.44.18.67.05.23 0 .24.07.37s0-.17 0 0a1.37 1.37 0 010 .19c.015.233.015.467 0 .7v.5c0 .05 0 .08 0 0v.1a.8.8 0 00.07.57.78.78 0 00.44.34.76.76 0 00.91-.51 7 7 0 00-.25-3.3.76.76 0 00-.91-.52.74.74 0 00-.51.91V152zm-4.7-4.07a11.44 11.44 0 010 1.43c0 .24 0 .47-.05.7-.05.23 0 .23 0 .34 0-.19 0 0 0 0v.22a.78.78 0 00.08.56.72.72 0 00.44.34.75.75 0 00.9-.51 13 13 0 00.15-3.11.76.76 0 00-.74-.73.74.74 0 00-.74.73l-.04.03z"/>
    <path fill="#B5B5B5" fill-rule="nonzero" d="M52.68 131.78v-.05l.11.15a6.42 6.42 0 01-.78-1.34l.08.18a5 5 0 01-.26-.74.74.74 0 10-1.42.4 7 7 0 001.27 2.45.75.75 0 001 0 .74.74 0 00.22-.52v-.2a.79.79 0 00-.19-.33h-.03zm3.99-27.12a8.39 8.39 0 00.44 4.27.75.75 0 00.9.52.76.76 0 00.52-.91 7.89 7.89 0 01-.3-.94 3 3 0 01-.09-.41 2.74 2.74 0 010-.28v-.08-.92-.49-.21-.14c0-.05 0 .07 0 0a.77.77 0 00-.52-.91.74.74 0 00-.9.51l-.05-.01zm3.93 10.89a16.18 16.18 0 011.77 2.9.75.75 0 001 .27.75.75 0 00.26-1 16.62 16.62 0 00-1.77-2.91.77.77 0 00-.44-.33.75.75 0 00-.57.07.75.75 0 00-.26 1h.01zm-2.81 9.73l2.27.76a.75.75 0 00.91-.51.76.76 0 00-.51-.91l-2.28-.76a.74.74 0 00-.39 1.42zm3.52-24.9l1.09-3.56a.74.74 0 10-1.4-.39L59.89 100a.73.73 0 00.51.9.76.76 0 00.91-.51v-.01zm7.46-1.94l1.45 1.29a.78.78 0 00.52.21.76.76 0 00.52-.21.74.74 0 00.22-.52.73.73 0 00-.22-.52l-1.45-1.29a.79.79 0 00-.52-.22.73.73 0 00-.52.22.77.77 0 00-.22.52.73.73 0 00.22.52zm-2.44 5.73l.23.08c-.24-.09 0 0 .07 0a3.11 3.11 0 01.4.22l.2.13.08.06c.11.09-.13-.1 0 0l.35.32c.11.11.21.22.31.34.1.12-.06-.08 0 0l.06.08a2.14 2.14 0 01.13.19 4.49 4.49 0 01.24.42c0 .07.07.14.1.22.03.08-.07-.16 0 0a.69.69 0 000 .13.74.74 0 001.42-.39 5.24 5.24 0 00-3.19-3.18.74.74 0 00-.9.51.75.75 0 00.51.91l-.01-.04zm-2.19 4.12a5.77 5.77 0 00.68.94 5.34 5.34 0 00.87.78.71.71 0 00.57.07.73.73 0 00.44-.33.75.75 0 00.07-.57l-.07-.18a.75.75 0 00-.27-.26h-.05l.14.12a5 5 0 01-.86-.86l.12.15a4.81 4.81 0 01-.37-.55.74.74 0 00-1-.27.87.87 0 00-.34.44.8.8 0 00.08.57l-.01-.05zm10.91 2.58c.11.12.21.25.31.37-.09-.11 0 .06.07.1l.13.2a5.3 5.3 0 01.48.87s.06.14 0 0 0 0 0 .06a2 2 0 00.08.22c0 .15.1.31.14.47.04.16.08.31.11.47a2 2 0 010 .24c0 .11 0-.13 0 0v.15a.77.77 0 00.74.74.75.75 0 00.74-.74 7.32 7.32 0 00-1.86-4.22.74.74 0 10-1 1l.06.07zm-6.28 5.32l.26.31.06.08c.11.14-.06-.08 0 0l.12.17c.16.22.32.46.47.7a10 10 0 01.77 1.49.74.74 0 00.44.34.75.75 0 00.57-.07.77.77 0 00.34-.44.86.86 0 00-.08-.57 11.46 11.46 0 00-1.91-3 .74.74 0 00-1 0 .75.75 0 000 1l-.04-.01zm11.15 4.98a12.14 12.14 0 003.52 2.72.74.74 0 001-.27.73.73 0 00-.26-1c-.31-.16-.62-.34-.92-.53l-.42-.28-.21-.15-.12-.08s-.14-.1 0 0a7.07 7.07 0 01-.78-.67c-.26-.24-.51-.5-.75-.77a.74.74 0 00-1 1l-.06.03zm7.77-2.55v.1s0 .11.07.17l.15.39c.09.26.17.51.25.77a14.67 14.67 0 01.38 1.62.73.73 0 00.9.51.75.75 0 00.52-.9 14.89 14.89 0 00-1.05-3.4.73.73 0 00-1-.27.77.77 0 00-.27 1l.05.01zm6.46-7.52a20.2 20.2 0 00-1.53 4.05.74.74 0 001.42.39 18.21 18.21 0 01.61-1.94l.18-.47a2.29 2.29 0 01.1-.23c-.06.12 0-.1 0-.12.14-.32.28-.63.44-.94a.76.76 0 00-.27-1 .74.74 0 00-1 .27l.05-.01zm-10.71-1.21l.48 2.58a.74.74 0 001.42-.39l-.48-2.58a.74.74 0 00-.86-.5.76.76 0 00-.52.91l-.04-.02zm9.14-7.34l-.91 2.92a.74.74 0 00.51.91.76.76 0 00.91-.52l.91-2.92a.73.73 0 00-.51-.9.75.75 0 00-.91.51zm6.82.34l-.33 1.93a.81.81 0 00.08.57.75.75 0 00.44.34.73.73 0 00.56-.08.68.68 0 00.34-.44l.33-1.93a.81.81 0 00-.08-.57.73.73 0 00-1-.26.68.68 0 00-.33.44h-.01zm4.76 2.83c0 .17.08.34.12.51.04.17 0 .08 0 0v.4c.01.1498.01.3002 0 .45a2.1099 2.1099 0 010 .26.59.59 0 010 .13 6.24 6.24 0 01-.26.94c0 .08 0 .08 0 0l-.06.12a2.4001 2.4001 0 01-.11.23c-.09.15-.18.3-.28.44a.74.74 0 001.27.75 5.56 5.56 0 00.75-4.62.74.74 0 00-.9-.52.75.75 0 00-.52.91h-.01z"/>
    <path fill="#077233" fill-rule="nonzero" d="M31.43 153.93a38.13 38.13 0 003.26-3.09 9.54 9.54 0 002.14-6.92 2.4 2.4 0 01-1.39 1.55 15.64 15.64 0 01-2 .69 7.11 7.11 0 00-4.62 4.67c-.37 1.41-.44 4.24.52 5.38.78-.4 1.4-1.63 2.09-2.28zm-7.59-8.48a16.91 16.91 0 002.12.21 4.5 4.5 0 003.14-1.38 1.12 1.12 0 01-1 0 7 7 0 01-.88-.51 3.37 3.37 0 00-3.11-.2c-.62.3-1.66 1.16-1.77 1.86a6 6 0 001.5.02z"/>
    <path fill="#FFF" fill-rule="nonzero" d="M134.88 141.56c-3 0-5.36-3.83-5.36-3.83s2.4-3.83 5.36-3.83c2.96 0 5.37 3.83 5.37 3.83s-2.4 3.83-5.37 3.83z"/>
    <circle cx="134.88" cy="137.73" r="1.65" fill="#100C3D" fill-rule="nonzero"/>
    <path fill="#FFF" fill-rule="nonzero" d="M157 141.56c-3 0-5.37-3.83-5.37-3.83s2.4-3.83 5.37-3.83 5.36 3.83 5.36 3.83-2.36 3.83-5.36 3.83z"/>
    <circle cx="157" cy="137.73" r="1.65" fill="#100C3D" fill-rule="nonzero"/>
    <path fill="#CFCFCF" fill-rule="nonzero" d="M121.11 93.62a36.7 36.7 0 00-3.26 3.09 9.53 9.53 0 00-2.14 6.92 2.41 2.41 0 011.38-1.55 16.31 16.31 0 012-.69 7.1 7.1 0 004.61-4.67c.38-1.41.45-4.24-.52-5.38-.76.39-1.38 1.66-2.07 2.28zm7.59 8.48a15.22 15.22 0 00-2.12-.21 4.49 4.49 0 00-3.14 1.38 1.16 1.16 0 011 0 9.68 9.68 0 01.88.52 3.37 3.37 0 003.11.2c.62-.3 1.66-1.16 1.77-1.86a6 6 0 00-1.5-.03z"/>
    <path d="M0 0h288v220H0z"/>
  </g>
</svg>
