<svg xmlns="http://www.w3.org/2000/svg" width="137" height="196" viewBox="0 0 137 196">
  <g fill="none" fill-rule="evenodd" transform="translate(-74 -9)">
    <ellipse cx="143.55" cy="197.17" fill="#CFCFCF" fill-rule="nonzero" rx="63.63" ry="7.36"/>
    <path fill="#895B2E" fill-rule="nonzero" d="M134.7043 95.3728l-6.2667 3.8598-24.6483-40.0183c-.9384-1.5236-.464-3.5194 1.0595-4.4578l.7067-.4353c1.5236-.9384 3.5195-.464 4.458 1.0595l24.6482 40.0183.0426-.0262z"/>
    <path fill="#AD8768" fill-rule="nonzero" d="M113.3418 60.709l-6.2667 3.8597-.7709-1.2516 6.2667-3.8598zM115.6628 64.459l-6.2667 3.8597-.7709-1.2516 6.2667-3.8598zM117.9758 68.224l-6.2667 3.8597-.7709-1.2516 6.2667-3.8598zM120.2968 71.984l-6.2667 3.8597-.7709-1.2516 6.2667-3.8598zM122.6048 75.74l-6.2667 3.8597-.7709-1.2516 6.2667-3.8598zM124.9168 79.506l-6.2667 3.8597-.7709-1.2516 6.2667-3.8598zM127.2388 83.256l-6.2667 3.8597-.7709-1.2516 6.2667-3.8598zM129.5508 87.021l-6.2667 3.8597-.7709-1.2516 6.2667-3.8598z"/>
    <path fill="#895B2E" fill-rule="nonzero" d="M180.9033 53.0973l.748.4576c1.521.9305 1.9997 2.9178 1.0692 4.4388l-24.4401 39.9499-6.256-3.8272 24.4401-39.95a3.2285 3.2285 0 014.4388-1.0691z"/>
    <path fill="#AD8768" fill-rule="nonzero" d="M173.9516 59.0634l6.2667 3.8598-.7709 1.2517-6.2667-3.8598zM171.6341 62.8183l6.2667 3.8598-.771 1.2516-6.2666-3.8598zM169.3061 66.5833l6.2667 3.8598-.771 1.2516-6.2666-3.8598zM166.9981 70.3433l6.2667 3.8598-.771 1.2516-6.2666-3.8598zM164.6801 74.0983l6.2667 3.8598-.771 1.2516-6.2666-3.8598zM162.3721 77.8683l6.2667 3.8598-.771 1.2516-6.2666-3.8598zM160.0541 81.6233l6.2667 3.8598-.771 1.2516-6.2666-3.8598zM157.886 84.556l6.256 3.8272-.7645 1.2497-6.256-3.8273z"/>
    <path fill="#D3D2F2" fill-rule="nonzero" d="M158 77.87c2.78-.05 5.39-6.62 2.34-6.57-2.78 0-5.39 6.63-2.34 6.57z" opacity=".18"/>
    <path fill="#100C3D" fill-rule="nonzero" d="M136.8842 71.7926l12.738-.2268c13.805-.2458 25.1953 10.746 25.4411 24.551l.6074 34.1146-62.73 1.1168-.6075-34.1146c-.2457-13.8049 10.7461-25.1953 24.551-25.441z"/>
    <path fill="#090833" fill-rule="nonzero" d="M189.18 194.45a4.27 4.27 0 011.68 2.18 2.55 2.55 0 01-1.14 2.54 4.19 4.19 0 01-2.84.56c-1.15-.15-2.38-.62-3.41-.11-.77.39-1.23 1.23-2 1.63-1.26.65-2.75-.14-3.95-.9l-9.64-6.2a11.2 11.2 0 01-1.88-1.4 5.63 5.63 0 01-1.59-3.26l14.27-.57c2-.08 3.34-.43 4.88.91 1.84 1.59 3.75 3.09 5.62 4.62zM110.59 196a4.3 4.3 0 00-1.61 2.24 2.55 2.55 0 001.23 2.49 4.12 4.12 0 002.86.46c1.14-.19 2.35-.7 3.41-.22.78.35 1.26 1.18 2 1.55 1.28.61 2.75-.23 3.92-1l9.41-6.54a10.76 10.76 0 001.83-1.46 5.58 5.58 0 001.47-3.32l-14.28-.06c-2 0-3.35-.31-4.85 1.09-1.72 1.56-3.58 3.12-5.39 4.77z"/>
    <path fill="#100C3D" fill-rule="nonzero" d="M166.23 191.59l11.48-.2a5.55 5.55 0 005.4-6.35l-6.91-50.31-.52-4.5-62.68 1.12-.23 4.29-1.87 53.67a3.09 3.09 0 00.8787 2.2812 3.0921 3.0921 0 002.2613.9292l19.62-.3504c1.6597-.0483 2.9846-1.3996 3-3.06l.22-31.21c.0317-5.3803 4.3505-9.7524 9.73-9.85 5.0307-.0807 9.3268 3.6139 10 8.6l4 30.13c.376 2.8 2.7955 4.8708 5.62 4.81z"/>
    <path fill="#161547" fill-rule="nonzero" d="M113.17 131l-.22 4.29-1.87 53.71a3.08 3.08 0 003.14 3.21l7.38-.13.24-6c.1867-4.6667.38-9.3567.58-14.07.37-8.64.79-17.28 1.32-25.91.27-4.27.56-8.54.9-12.81.06-.74.2-1.59.34-2.47l-11.81.18z"/>
    <path fill="#C60000" fill-rule="nonzero" d="M175.86 131.7l-62.89.87-.11-6.05 62.74-.69.07 3.72z"/>
    <path fill="#A00" fill-rule="nonzero" d="M145.62 132.12l30.24-.42-.19-2.15-.07-3.72-29.98.33z"/>
    <path fill="#FFD09A" fill-rule="nonzero" d="M77.31 76.19A14 14 0 0081.52 80l8.09 5.44a43.62 43.62 0 001.72-7.65 1 1 0 00-.45-1.17l-11.29-9.49c-1.63-1.37-5.08-3.72-4.77.06.23 2.81.93 6.57 2.49 9z"/>
    <path fill="#100C3D" fill-rule="nonzero" d="M112.09 76.17c-5.25 8.34-5.25 9.81-10.42 19.26l-8.44-18.65a1.54 1.54 0 00-.63-.8 1.41 1.41 0 00-.84 0 12.93 12.93 0 00-8.45 6.15 2.45 2.45 0 00-.41 1.34 2.61 2.61 0 00.45 1.11c6.08 10.36 9.17 22.27 15.41 32.53.77 1.26 1.72 2.6 3.15 3a4.69 4.69 0 003.65-1c4-2.75 5.17-7.12 7.17-11.53 4-8.93 7.46-17.25 11.78-25 2.18-3.93 4.23-7.68 6.13-11.76.36-.76.93-1.49.12-2-.55-.35-2.08-.17-2.72-.16a19.32 19.32 0 00-5.39.9c-4.02 1.18-8.33 3.06-10.56 6.61z"/>
    <path fill="#FFD09A" fill-rule="nonzero" d="M208.81 75.67a13.76 13.76 0 01-3.81 4.14L197.44 86a42.43 42.43 0 01-2.44-7.46 1.35 1.35 0 010-.69 1.42 1.42 0 01.37-.52l10.34-10.47c1.5-1.52 4.7-4.18 4.76-.39.01 2.87-.34 6.63-1.66 9.2z"/>
    <path fill="#100C3D" fill-rule="nonzero" d="M174.45 75.65c5.25 8.34 5.25 9.81 10.41 19.26l8.45-18.65a1.45 1.45 0 01.63-.8 1.38 1.38 0 01.83 0 12.9 12.9 0 018.45 6.15 2.46 2.46 0 01.42 1.34 2.89 2.89 0 01-.45 1.11c-6.08 10.35-9.17 22.27-15.41 32.53-.77 1.26-1.72 2.6-3.16 3a4.7 4.7 0 01-3.65-1c-4-2.75-5.16-7.12-7.16-11.53-4.05-8.94-7.46-17.25-11.78-25-2.18-3.93-4.23-7.68-6.14-11.76-.35-.76-.92-1.49-.11-2 .54-.36 2.08-.17 2.71-.16a19.45 19.45 0 015.4.9c4.01 1.18 8.32 3.06 10.56 6.61z"/>
    <path fill="#100C3D" fill-rule="nonzero" d="M152.12 84.56l-5.47 3.59c-2.1219 1.4049-4.8781 1.4049-7 0l-5.47-3.59c-9.65-6.3364-15.4612-17.1056-15.46-28.65V38.12a24.42 24.42 0 0124.43-24.42 24.42 24.42 0 0124.43 24.42v17.79c.0012 11.5444-5.81 22.3136-15.46 28.65z"/>
    <path fill="#1B1B4F" fill-rule="nonzero" d="M165.25 68.34a43.18 43.18 0 01-7.92 7.4l-6.18 4.86a9.4 9.4 0 01-2.9 1.76c-3.52 1.11-6.94-2.07-8.73-5.3a38.92 38.92 0 01-3.68-10.24c-3.92-17.26-.87-35.21 2.48-52.64-11.394 2.303-19.5873 12.3156-19.59 23.94v17.79c-.0012 11.5444 5.81 22.3136 15.46 28.65l5.47 3.59c2.1219 1.4049 4.8781 1.4049 7 0l5.47-3.59a34.29 34.29 0 0013.12-16.22z"/>
    <rect width="43.67" height="20.33" x="121.48" y="37.41" fill="#FFD09A" fill-rule="nonzero" rx="8.95"/>
    <rect width="3.63" height="6.06" x="133.4" y="44.63" fill="#100C3D" fill-rule="nonzero" rx="1.6"/>
    <rect width="3.63" height="6.06" x="150.99" y="44.63" fill="#100C3D" fill-rule="nonzero" rx="1.6"/>
    <rect width="7.391" height="2.952" x="146.342" y="66.958" fill="#C6976A" fill-rule="nonzero" rx="1.3" transform="rotate(-15.005 150.038 68.434)"/>
    <path fill="#161547" fill-rule="nonzero" d="M118.52 94.91a21446.528 21446.528 0 00-10.16 12.79 4.15 4.15 0 01-1.51 1.35 2.78 2.78 0 01-3-.92 9 9 0 01-1.5-2.91 76.13 76.13 0 00-5.12-10.51c-3.2-5.61-6.91-11-9.76-16.79a12.89 12.89 0 00-4.14 4.36 2.45 2.45 0 00-.33 1.34 2.73 2.73 0 00.44 1.11c6.08 10.36 9.18 22.27 15.42 32.53.77 1.26 1.71 2.6 3.15 3a4.7 4.7 0 003.65-1c4-2.75 5.17-7.12 7.17-11.53 2-4.41 3.81-8.73 5.69-12.82zm81.07-17.27c-6.24 8.71-8.34 19.84-12.68 29.8a4.56 4.56 0 01-2.17 2.69c-1.77.7-3.56-.89-4.77-2.36a62.85 62.85 0 01-8.92-13.64c-1.16-2.53-1.62-3.7-2.87-6.19-1.88-3.74 1.7 10 5.75 19 2 4.41 3.18 8.78 7.16 11.53a4.72 4.72 0 003.66 1c1.43-.36 2.38-1.7 3.15-3 6.24-10.26 9.33-22.17 15.41-32.53a2.61 2.61 0 00.45-1.11 2.45 2.45 0 00-.41-1.34 14.45 14.45 0 00-3.76-3.85zm-24.12-59.26c1.07-1.06 2.17-2.09 3.31-3.07.56-.48 1.12-.94 1.69-1.4l.46-.36s.23-.18.11-.08c-.12.1.13-.1.15-.12l.93-.7c.6818-.4187.915-1.2987.53-2-.412-.6907-1.3-.926-2-.53a62 62 0 00-7.25 6.19c-.5693.5765-.5693 1.5035 0 2.08.5808.5588 1.4992.5588 2.08 0l-.01-.01zm4.82 15.1a155.1736 155.1736 0 019-3.45 1.4726 1.4726 0 10-.78-2.84 136.8356 136.8356 0 00-9 3.45c-.759.2446-1.1969 1.0373-1 1.81.2362.7659 1.036 1.2077 1.81 1l-.03.03zM113.11 16.3a62 62 0 00-7.25-6.19 1.46 1.46 0 00-2 .53c-.385.7013-.1518 1.5813.53 2l.87.66.26.19c-.11-.08-.09-.07 0 0l.45.36c.59.47 1.17 1 1.75 1.44 1.14 1 2.24 2 3.31 3.07.5744.5744 1.5056.5744 2.08 0s.5744-1.5056 0-2.08v.02zM107 30.64a151.5527 151.5527 0 00-9-3.45c-.7748-.2133-1.5782.2306-1.81 1-.1969.7727.241 1.5654 1 1.81a136.8356 136.8356 0 019 3.45c.7754.219 1.5827-.227 1.81-1 .1969-.7727-.241-1.5654-1-1.81z"/>
    <path d="M0 0h288v220H0z"/>
  </g>
</svg>
