<svg xmlns="http://www.w3.org/2000/svg" width="128" height="192" viewBox="0 0 128 192">
  <g fill="none" fill-rule="evenodd" transform="translate(-80 -13)">
    <ellipse cx="144" cy="197.17" fill="#CFCFCF" fill-rule="nonzero" rx="63.63" ry="7.36"/>
    <path fill="#895B2E" fill-rule="nonzero" d="M134.073 95.171l-6.2667 3.8599-24.6483-40.0183c-.9385-1.5236-.464-3.5195 1.0595-4.4579l.7493-.4615c1.5203-.9363 3.5116-.4663 4.4526 1.051l24.6483 40.0183.0053.0085z"/>
    <path fill="#AD8768" fill-rule="nonzero" d="M112.6798 60.504l-6.2667 3.8597-.7709-1.2516 6.2667-3.8598zM114.9928 64.269l-6.2667 3.8597-.7709-1.2516 6.2667-3.8598zM117.3058 68.024l-6.2667 3.8597-.7709-1.2516 6.2667-3.8598zM119.6268 71.784l-6.2667 3.8597-.7709-1.2516 6.2667-3.8598z"/>
    <path fill="#382109" fill-rule="nonzero" d="M121.9398 75.549l-6.2667 3.8597-.7709-1.2516 6.2667-3.8598zM124.2528 79.315l-6.2667 3.8597-.7709-1.2516 6.2667-3.8598zM126.5738 83.075l-6.2667 3.8597-.7709-1.2516 6.2667-3.8598zM128.8868 86.83l-6.2667 3.8597-.7709-1.2516 6.2667-3.8598z"/>
    <path fill="#100C3D" fill-rule="nonzero" d="M136.2208 71.5945l12.738-.2268c13.8049-.2458 25.1953 10.746 25.441 24.551l.6074 34.1146-62.73 1.1169-.6074-34.1146a25 25 0 0124.551-25.441z"/>
    <path fill="#090833" fill-rule="nonzero" d="M188.51 194.26a4.25 4.25 0 011.68 2.17 2.53 2.53 0 01-1.14 2.54 4.08 4.08 0 01-2.84.56c-1.15-.15-2.38-.62-3.41-.1-.77.38-1.23 1.23-2 1.62-1.26.66-2.75-.13-3.95-.9l-9.64-6.2a10.68 10.68 0 01-1.88-1.4 5.57 5.57 0 01-1.59-3.26l14.27-.57c2-.08 3.34-.42 4.88.92 1.84 1.58 3.75 3.08 5.62 4.62zm-78.59 1.5a4.28 4.28 0 00-1.61 2.23 2.57 2.57 0 001.23 2.5 4.17 4.17 0 002.86.46c1.14-.19 2.35-.71 3.41-.23.78.36 1.26 1.19 2 1.55 1.28.61 2.75-.23 3.92-1l9.41-6.53a11.34 11.34 0 001.83-1.47 5.58 5.58 0 001.47-3.32l-14.28-.06c-2 0-3.35-.3-4.85 1.09-1.72 1.61-3.58 3.18-5.39 4.78z"/>
    <path fill="#100C3D" fill-rule="nonzero" d="M165.56 191.4l11.48-.2a5.55 5.55 0 005.4-6.35l-6.91-50.31L175 130l-62.74 1.12-.22 4.29-1.87 53.67a3.09 3.09 0 00.8787 2.2812 3.0921 3.0921 0 002.2613.9292l19.62-.3504c1.6597-.0483 2.9846-1.3996 3-3.06l.22-31.22c.0318-5.3785 4.3521-9.7477 9.73-9.84 5.029-.0859 9.3264 3.6056 10 8.59l4 30.14c.364 2.837 2.821 4.935 5.68 4.85z"/>
    <path fill="#161547" fill-rule="nonzero" d="M112.5 130.84l-.22 4.29-1.87 53.67a3.08 3.08 0 003.14 3.21l7.38-.13.24-6c.1867-4.6667.38-9.36.58-14.08.37-8.63.79-17.27 1.32-25.9.27-4.28.56-8.55.9-12.82 0-.73.2-1.59.34-2.46l-11.81.22z"/>
    <path fill="#C60000" fill-rule="nonzero" d="M175.19 131.5l-62.89.87-.11-6.04 62.74-.69.07 3.71z"/>
    <path fill="#A00" fill-rule="nonzero" d="M144.95 131.92l30.24-.42-.19-2.15-.07-3.71-29.98.33z"/>
    <path fill="#100C3D" fill-rule="nonzero" d="M91.71 106.57a26.64 26.64 0 00-2 10.65c.25 3.63 1.91 7.32 5 9.25 2.66 1.67 6 1.82 9.13 1.61 3.13-.21 6.21-.75 9.3-1.28l15.76-2.74a15.26 15.26 0 00-.77-11.09 3.14 3.14 0 00-1.12-1.44 3.53 3.53 0 00-1.4-.35 68.07 68.07 0 00-10.49-.21c-1.91.11-4.07.22-5.44-1.11a4.43 4.43 0 01-1.11-3.67 12.92 12.92 0 011.21-3.76 38.87 38.87 0 013.31-6.37c3.11-4.53 7.94-7.53 12.33-10.85 1.86-1.42 3.78-3.09 4.25-5.38.54-2.59-1-5.29-3.3-6.67-2.72-1.66-5.81-2-8.38-.13a97.86 97.86 0 00-8.31 6.33 65.32 65.32 0 00-13 16.38 70.64 70.64 0 00-4.97 10.83z"/>
    <path fill="#161547" fill-rule="nonzero" d="M129.42 117.09c-5.87 0-11.79.06-17.48 1.47-2.72.67-5.43 1.65-8.23 1.53a6.35 6.35 0 01-5.25-2.59c-1.11-1.79-.82-4.09-.34-6.14a46 46 0 019.39-18.91 91.61 91.61 0 019.68-9.52l10.16-9.06a7.44 7.44 0 00-1-.71c-2.72-1.66-5.81-2-8.38-.13a97.86 97.86 0 00-8.31 6.33 65.32 65.32 0 00-13 16.38 70.64 70.64 0 00-5 10.83 26.64 26.64 0 00-2 10.65c.25 3.63 1.91 7.32 5 9.25 2.66 1.67 6 1.82 9.13 1.61 3.13-.21 6.21-.75 9.3-1.28l15.76-2.74a15.22 15.22 0 00.57-6.97z"/>
    <path fill="#E2B181" fill-rule="nonzero" d="M150.4 108.36c-1.47-.36-3.17-.55-4.38.38a4.56 4.56 0 00-1.14 1.4 12 12 0 00-1.57 6.29 2.12 2.12 0 00.27 1.14 2.39 2.39 0 001.1.78c2.14 1 4.42 1.94 6.74 1.59a14.0001 14.0001 0 011.92-.31c1.49 0 2.8.86 4.1 1.57a19.39 19.39 0 004.42 1.75 6.65 6.65 0 01-.71-2.64c-.22-1.71-.44-3.43-.65-5.15-.21-1.72-.74-2.12-2.15-3.13-2.03-1.44-5.35-3.62-7.95-3.67z"/>
    <path fill="#100C3D" fill-rule="nonzero" d="M193 105.33a26.64 26.64 0 012 10.67c-.25 3.63-1.91 7.32-5 9.25-2.66 1.66-6 1.82-9.13 1.61a91.58 91.58 0 01-9.3-1.29l-15.76-2.73a15.25 15.25 0 01.77-11.09 3.09 3.09 0 011.12-1.44 3.37 3.37 0 011.4-.35 68.07 68.07 0 0110.49-.21c1.91.11 4.07.21 5.44-1.12a4.41 4.41 0 001.11-3.67 13 13 0 00-1.21-3.76 38.33 38.33 0 00-3.3-6.36c-3.12-4.53-7.95-7.53-12.34-10.86-1.86-1.41-3.77-3.08-4.25-5.37-.54-2.59 1-5.29 3.3-6.67 2.72-1.66 5.81-2 8.38-.14a100.11 100.11 0 018.28 6.32 65.45 65.45 0 0113 16.37 70.31 70.31 0 015 10.84z"/>
    <path fill="#161547" fill-rule="nonzero" d="M155.31 115.85c5.87 0 11.79.06 17.48 1.47 2.72.67 5.43 1.64 8.23 1.53a6.38 6.38 0 005.25-2.59c1.11-1.79.82-4.1.34-6.15a46 46 0 00-9.39-18.91 90.66 90.66 0 00-9.68-9.52l-10.16-9.06a7.37 7.37 0 011-.7c2.72-1.66 5.81-2 8.38-.14a100.11 100.11 0 018.24 6.34 65.45 65.45 0 0113 16.37 70.31 70.31 0 015 10.84 26.64 26.64 0 012 10.67c-.25 3.63-1.91 7.32-5 9.25-2.66 1.66-6 1.82-9.13 1.61a91.58 91.58 0 01-9.3-1.29l-15.76-2.73a15.23 15.23 0 01-.5-6.99z"/>
    <path fill="#895B2E" fill-rule="nonzero" d="M144.785 102.8517l5.271 3.2073-16.4887 27.0976c-.7809 1.2833-2.4542 1.6907-3.7375.9098l-.6322-.3847c-1.2833-.7809-1.6906-2.4542-.9097-3.7375l16.4886-27.0977.0085.0052z"/>
    <path fill="#AD8768" fill-rule="nonzero" d="M131.0328 125.4401l5.2709 3.2073-.6394 1.0508-5.271-3.2073zM132.9634 122.2835l5.2709 3.2072-.6394 1.0508-5.2709-3.2073zM134.8851 119.1285l5.2709 3.2073-.6394 1.0507-5.2709-3.2072zM136.8132 115.958l5.271 3.2073-.6394 1.0507-5.271-3.2073zM138.7437 112.8018l5.271 3.2073-.6395 1.0508-5.2709-3.2073zM140.6617 109.6218l5.271 3.2073-.6395 1.0508-5.2709-3.2073zM142.5942 106.465l5.271 3.2073-.6394 1.0507-5.271-3.2073zM144.5062 103.304l5.271 3.2073-.6394 1.0507-5.271-3.2073z"/>
    <path fill="#A5A5A5" fill-rule="nonzero" d="M198.29 26.4l-48.2 79.55-4.85-3 42.61-70.34z"/>
    <path fill="#DDD" fill-rule="nonzero" d="M188.17 35.58l6.47-3.12 3.66-6.04-10.44 6.21-42.61 70.34 1.98 1.22z"/>
    <path fill="#DDD" fill-rule="nonzero" d="M141.9211 100.5456l11.5838 7.0875-1.096 1.7913-11.5838-7.0875z"/>
    <path fill="#FFD09A" fill-rule="nonzero" d="M141.67 114.42c1.46.42 3 1.11 3.61 2.52a4.49 4.49 0 01.28 1.78 12 12 0 01-1.78 6.24 2.21 2.21 0 01-.81.85 2.43 2.43 0 01-1.34.12c-2.33-.24-4.8-.53-6.63-2a16 16 0 00-1.51-1.24c-1.27-.77-4.38.37-4.38.37v-9.32s2.12 0 3.85-.13c2.47-.23 6.46-.44 8.71.81z"/>
    <path fill="#100C3D" fill-rule="nonzero" d="M151.55 84.53l-5.47 3.59c-2.125 1.3943-4.875 1.3943-7 0l-5.47-3.59c-9.6486-6.3377-15.4594-17.106-15.46-28.65V38.09c0-13.4868 10.9332-24.42 24.42-24.42A24.42 24.42 0 01167 38.09v17.79c.0016 11.542-5.8052 22.31-15.45 28.65z"/>
    <path fill="#1B1B4F" fill-rule="nonzero" d="M164.68 68.31a43.18 43.18 0 01-7.92 7.4l-6.18 4.85a9.55 9.55 0 01-2.9 1.77c-3.52 1.11-6.94-2.07-8.73-5.3a39.11 39.11 0 01-3.68-10.25c-3.93-17.25-.88-35.21 2.47-52.63-11.3922 2.3036-19.5821 12.3173-19.58 23.94v17.79c.0006 11.544 5.8114 22.3123 15.46 28.65l5.47 3.59c2.125 1.3943 4.875 1.3943 7 0l5.47-3.59a34.34 34.34 0 0013.12-16.22z"/>
    <rect width="43.67" height="20.33" x="120.91" y="37.38" fill="#FFD09A" fill-rule="nonzero" rx="8.95"/>
    <rect width="3.63" height="6.06" x="137.35" y="46.07" fill="#100C3D" fill-rule="nonzero" rx="1.6"/>
    <rect width="7.36" height="2.94" x="141.97" y="66.31" fill="#C6976A" fill-rule="nonzero" rx="1.3"/>
    <rect width="4.927" height="1.967" x="137.255" y="42.924" fill="#1B1B4F" fill-rule="nonzero" rx=".86" transform="rotate(29.887 139.719 43.908)"/>
    <rect width="3.63" height="6.06" x="153.34" y="46.14" fill="#100C3D" fill-rule="nonzero" rx="1.6" transform="rotate(180 155.155 49.17)"/>
    <rect width="4.91" height="1.96" x="152.697" y="42.836" fill="#1B1B4F" fill-rule="nonzero" rx=".86" transform="rotate(150 155.152 43.816)"/>
    <path d="M0 0h288v220H0z"/>
  </g>
</svg>
